<svg width="681" height="480" viewBox="0 0 681 480" fill="none" xmlns="http://www.w3.org/2000/svg">
<path d="M3.45948 336C2.84448 336 2.3576 335.795 1.99885 335.385C1.69135 334.975 1.5376 334.411 1.5376 333.694C1.5376 332.617 1.92198 331.823 2.69073 331.311C3.45948 330.747 4.5101 330.465 5.8426 330.465H7.14948L15.2982 288.645L13.7607 288.261C12.2745 287.851 11.1726 287.364 10.4551 286.8C9.78885 286.185 9.45573 285.416 9.45573 284.494C9.45573 283.212 9.96823 282.572 10.9932 282.572H28.982L39.3601 318.703C39.8214 320.292 40.2057 322.291 40.5132 324.699C40.8207 327.108 41.0001 328.697 41.0514 329.466H41.4357C41.487 328.697 41.6664 327.108 41.9739 324.699C42.2814 322.291 42.6401 320.292 43.0501 318.703L52.6595 282.572H70.7251C71.1351 282.572 71.4682 282.726 71.7245 283.033C72.032 283.341 72.1857 283.827 72.1857 284.494C72.1857 285.467 71.8526 286.236 71.1864 286.8C70.5201 287.364 69.4182 287.851 67.8807 288.261L66.3432 288.645L75.4145 330.388L78.3357 331.464C79.3607 331.874 80.1039 332.284 80.5651 332.694C81.0264 333.104 81.257 333.642 81.257 334.309C81.257 335.436 80.8726 336 80.1039 336H60.8851C60.2701 336 59.7832 335.795 59.4245 335.385C59.117 334.975 58.9632 334.411 58.9632 333.694C58.9632 332.617 59.3476 331.823 60.1164 331.311C60.8851 330.747 61.9357 330.465 63.2682 330.465H66.0357L58.5789 295.026C58.3739 294.052 58.1945 292.924 58.0407 291.643C57.887 290.362 57.8101 289.516 57.8101 289.106H57.5026C57.4514 289.516 57.3232 290.285 57.1182 291.412C56.9132 292.54 56.657 293.744 56.3495 295.026L45.5101 336H34.9014L22.9089 295.026C22.6526 294.052 22.422 292.924 22.217 291.643C22.012 290.362 21.8839 289.516 21.8326 289.106H21.5251C21.5251 289.516 21.4482 290.362 21.2945 291.643C21.192 292.924 21.0639 294.052 20.9101 295.026L14.222 330.465L18.4501 331.772C19.7314 332.182 20.577 332.592 20.987 333.002C21.397 333.361 21.602 333.873 21.602 334.539C21.602 335.513 21.2176 336 20.4489 336H3.45948ZM101.778 337.076C98.1909 337.076 94.9621 336.333 92.0921 334.847C89.2221 333.361 86.9415 331.131 85.2503 328.159C83.6103 325.186 82.7903 321.547 82.7903 317.242C82.7903 312.937 83.6103 309.324 85.2503 306.403C86.9415 303.431 89.2221 301.201 92.0921 299.715C94.9621 298.229 98.1909 297.486 101.778 297.486C105.366 297.486 108.569 298.229 111.388 299.715C114.258 301.201 116.513 303.431 118.153 306.403C119.844 309.324 120.69 312.937 120.69 317.242C120.69 321.547 119.844 325.186 118.153 328.159C116.513 331.131 114.258 333.361 111.388 334.847C108.569 336.333 105.366 337.076 101.778 337.076ZM101.778 331.541C104.956 331.541 107.39 330.311 109.081 327.851C110.824 325.391 111.695 321.855 111.695 317.242C111.695 312.681 110.824 309.171 109.081 306.711C107.39 304.251 104.956 303.021 101.778 303.021C98.6009 303.021 96.1409 304.251 94.3984 306.711C92.7071 309.171 91.8615 312.681 91.8615 317.242C91.8615 321.855 92.7071 325.391 94.3984 327.851C96.1409 330.311 98.6009 331.541 101.778 331.541ZM141.066 337.076C137.376 337.076 134.327 336.026 131.918 333.924C129.561 331.772 128.382 328.851 128.382 325.161V303.482H124.846C123.667 303.482 123.077 302.764 123.077 301.329C123.077 300.304 123.436 299.536 124.154 299.023C124.871 298.511 125.871 298.254 127.152 298.254H137.376V324.392C137.376 326.544 137.94 328.236 139.067 329.466C140.195 330.644 141.861 331.234 144.064 331.234C145.756 331.234 147.447 330.772 149.138 329.85C150.881 328.876 152.469 327.621 153.904 326.083V303.482H150.368C149.189 303.482 148.6 302.764 148.6 301.329C148.6 300.304 148.959 299.536 149.676 299.023C150.394 298.511 151.393 298.254 152.674 298.254H162.899V330.772L165.743 332.002C166.768 332.464 167.486 332.874 167.896 333.232C168.306 333.591 168.511 334.078 168.511 334.693C168.511 335.564 168.126 336 167.357 336H154.366V331.387H154.058C149.804 335.18 145.474 337.076 141.066 337.076ZM175.036 336C173.857 336 173.268 335.282 173.268 333.847C173.268 331.797 174.626 330.772 177.342 330.772H178.572V303.482H175.036C173.857 303.482 173.268 302.764 173.268 301.329C173.268 300.304 173.627 299.536 174.344 299.023C175.062 298.511 176.061 298.254 177.342 298.254H187.182V303.174H187.413C191.667 299.382 196.023 297.486 200.482 297.486C204.172 297.486 207.195 298.562 209.553 300.714C211.962 302.816 213.166 305.711 213.166 309.401V330.772L216.164 332.002C217.189 332.464 217.907 332.899 218.317 333.309C218.727 333.668 218.932 334.129 218.932 334.693C218.932 335.564 218.547 336 217.778 336H200.558C199.38 336 198.79 335.282 198.79 333.847C198.79 331.797 200.148 330.772 202.865 330.772H204.172V310.17C204.172 308.017 203.608 306.352 202.48 305.173C201.353 303.943 199.687 303.328 197.483 303.328C195.792 303.328 194.075 303.815 192.333 304.789C190.59 305.711 189.002 306.941 187.567 308.479V330.772L190.642 332.002C191.667 332.464 192.384 332.899 192.794 333.309C193.204 333.668 193.409 334.129 193.409 334.693C193.409 335.564 193.025 336 192.256 336H175.036ZM241.023 337.076C237.743 337.076 235.001 336.128 232.797 334.232C230.645 332.336 229.569 329.696 229.569 326.314V304.174H224.341C223.726 304.174 223.239 303.969 222.88 303.559C222.573 303.149 222.419 302.585 222.419 301.867C222.419 300.791 222.778 299.971 223.495 299.407C224.264 298.844 225.264 298.562 226.494 298.562H229.722L231.106 289.952H238.563V298.562H250.402C250.76 298.562 251.042 298.664 251.247 298.869C251.504 299.074 251.632 299.356 251.632 299.715C251.632 300.535 251.299 301.176 250.632 301.637C250.017 302.047 248.967 302.406 247.48 302.713L238.563 304.174V326.852C238.563 328.389 238.947 329.542 239.716 330.311C240.536 331.08 241.638 331.464 243.022 331.464C244.662 331.464 246.199 330.901 247.634 329.773C247.788 329.671 248.044 329.466 248.403 329.158C248.813 328.799 249.249 328.62 249.71 328.62C250.376 328.62 250.914 328.851 251.324 329.312C251.785 329.722 252.016 330.286 252.016 331.003C252.016 332.284 251.017 333.566 249.018 334.847C246.66 336.333 243.995 337.076 241.023 337.076ZM268.357 337.076C265.077 337.076 262.259 336.154 259.901 334.309C257.595 332.412 256.442 329.747 256.442 326.314C256.442 322.419 257.826 319.574 260.593 317.781C263.361 315.987 266.948 314.757 271.356 314.091L280.427 312.707V309.939C280.427 307.787 279.761 306.096 278.428 304.866C277.096 303.636 275.251 303.021 272.893 303.021C271.458 303.021 269.869 303.251 268.127 303.712C266.436 304.174 265.103 304.712 264.129 305.327L263.361 308.479C263.104 309.504 262.72 310.272 262.207 310.785C261.746 311.246 261.131 311.477 260.362 311.477C259.799 311.477 259.363 311.349 259.056 311.092C258.799 310.785 258.671 310.426 258.671 310.016V301.791C260.875 300.509 263.386 299.484 266.205 298.716C269.024 297.896 271.766 297.486 274.431 297.486C278.889 297.486 282.502 298.587 285.27 300.791C288.037 302.944 289.421 306.07 289.421 310.17V331.003L291.881 332.002C292.906 332.464 293.624 332.899 294.034 333.309C294.444 333.668 294.649 334.129 294.649 334.693C294.649 335.564 294.264 336 293.496 336H280.581V331.772H280.273C278.941 333.361 277.198 334.642 275.046 335.616C272.944 336.589 270.715 337.076 268.357 337.076ZM271.202 331.234C272.791 331.234 274.277 330.849 275.661 330.081C277.096 329.312 278.249 328.312 279.12 327.082C279.991 325.801 280.427 324.443 280.427 323.008V318.011L273.047 319.164C267.973 320.036 265.436 322.291 265.436 325.929C265.436 327.569 265.949 328.876 266.974 329.85C267.999 330.772 269.408 331.234 271.202 331.234ZM308.165 292.796C306.474 292.796 305.065 292.258 303.937 291.182C302.81 290.106 302.246 288.671 302.246 286.877C302.246 285.083 302.81 283.648 303.937 282.572C305.065 281.496 306.474 280.957 308.165 280.957C309.857 280.957 311.266 281.496 312.394 282.572C313.572 283.648 314.162 285.083 314.162 286.877C314.162 288.671 313.572 290.106 312.394 291.182C311.266 292.258 309.857 292.796 308.165 292.796ZM300.324 336C299.145 336 298.556 335.282 298.556 333.847C298.556 331.797 299.914 330.772 302.63 330.772H303.86V303.482H300.324C299.145 303.482 298.556 302.764 298.556 301.329C298.556 300.304 298.915 299.536 299.632 299.023C300.35 298.511 301.349 298.254 302.63 298.254H312.855V330.772L315.93 332.002C316.955 332.464 317.672 332.899 318.082 333.309C318.492 333.668 318.697 334.129 318.697 334.693C318.697 335.564 318.313 336 317.544 336H300.324ZM324.582 336C323.403 336 322.814 335.282 322.814 333.847C322.814 331.797 324.172 330.772 326.888 330.772H328.118V303.482H324.582C323.403 303.482 322.814 302.764 322.814 301.329C322.814 300.304 323.172 299.536 323.89 299.023C324.607 298.511 325.607 298.254 326.888 298.254H336.728V303.174H336.959C341.212 299.382 345.569 297.486 350.027 297.486C353.717 297.486 356.741 298.562 359.099 300.714C361.507 302.816 362.712 305.711 362.712 309.401V330.772L365.71 332.002C366.735 332.464 367.452 332.899 367.862 333.309C368.272 333.668 368.477 334.129 368.477 334.693C368.477 335.564 368.093 336 367.324 336H350.104C348.926 336 348.336 335.282 348.336 333.847C348.336 331.797 349.694 330.772 352.411 330.772H353.717V310.17C353.717 308.017 353.154 306.352 352.026 305.173C350.899 303.943 349.233 303.328 347.029 303.328C345.338 303.328 343.621 303.815 341.879 304.789C340.136 305.711 338.547 306.941 337.112 308.479V330.772L340.187 332.002C341.212 332.464 341.93 332.899 342.34 333.309C342.75 333.668 342.955 334.129 342.955 334.693C342.955 335.564 342.571 336 341.802 336H324.582ZM387.033 337.076C384.316 337.076 381.574 336.666 378.807 335.846C376.091 335.026 373.989 334.052 372.503 332.925V324.622C372.503 324.212 372.631 323.854 372.888 323.546C373.195 323.239 373.631 323.085 374.194 323.085C375.629 323.085 376.603 324.084 377.116 326.083L377.884 329.389C378.704 330.004 379.883 330.516 381.421 330.926C382.958 331.285 384.547 331.464 386.187 331.464C391.004 331.464 393.413 330.106 393.413 327.39C393.413 326.365 393.106 325.519 392.491 324.853C391.876 324.136 391.03 323.495 389.954 322.931C388.878 322.367 386.751 321.342 383.573 319.856C379.627 318.011 376.808 316.243 375.117 314.552C373.477 312.809 372.657 310.606 372.657 307.941C372.657 304.661 374.015 302.098 376.731 300.253C379.448 298.408 382.83 297.486 386.879 297.486C389.646 297.486 392.286 297.972 394.797 298.946C397.359 299.869 399.358 300.945 400.793 302.175V310.093C400.793 310.503 400.639 310.836 400.332 311.092C400.076 311.349 399.666 311.477 399.102 311.477C398.333 311.477 397.718 311.246 397.257 310.785C396.796 310.272 396.437 309.529 396.181 308.556L395.335 305.096C394.464 304.481 393.388 303.994 392.106 303.636C390.876 303.277 389.544 303.097 388.109 303.097C386.213 303.097 384.649 303.431 383.419 304.097C382.241 304.763 381.651 305.814 381.651 307.249C381.651 308.12 381.882 308.863 382.343 309.478C382.856 310.093 383.599 310.682 384.573 311.246C385.546 311.81 387.161 312.63 389.416 313.706L391.953 314.936C395.745 316.781 398.436 318.549 400.024 320.241C401.613 321.881 402.408 324.084 402.408 326.852C402.408 330.388 400.921 332.976 397.949 334.616C395.028 336.256 391.389 337.076 387.033 337.076ZM432.489 336C431.874 336 431.387 335.795 431.029 335.385C430.721 334.975 430.567 334.411 430.567 333.694C430.567 332.617 430.952 331.823 431.72 331.311C432.489 330.747 433.54 330.465 434.872 330.465H436.179V288.261L434.642 287.876C433.155 287.517 432.054 287.082 431.336 286.569C430.67 286.057 430.337 285.365 430.337 284.494C430.337 283.212 430.824 282.572 431.797 282.572H455.936C461.625 282.572 466.109 283.879 469.389 286.492C472.72 289.106 474.386 292.873 474.386 297.793C474.386 302.457 472.849 306.044 469.774 308.556C466.75 311.067 462.547 312.425 457.166 312.63L473.31 330.696L477 331.772C478.127 332.131 478.922 332.541 479.383 333.002C479.895 333.412 480.152 333.95 480.152 334.616C480.152 335.539 479.716 336 478.845 336H465.007L445.789 312.784V330.465L449.017 331.695C450.042 332.105 450.785 332.541 451.247 333.002C451.708 333.463 451.939 334.027 451.939 334.693C451.939 335.103 451.836 335.436 451.631 335.692C451.477 335.897 451.144 336 450.632 336H432.489ZM455.167 307.172C458.191 307.172 460.549 306.352 462.24 304.712C463.931 303.072 464.777 300.766 464.777 297.793C464.777 294.821 463.931 292.514 462.24 290.874C460.549 289.183 458.191 288.337 455.167 288.337H445.789V307.172H455.167ZM503.515 337.076C499.774 337.076 496.391 336.333 493.368 334.847C490.395 333.361 488.038 331.157 486.295 328.236C484.604 325.314 483.758 321.778 483.758 317.627C483.758 313.424 484.553 309.811 486.141 306.787C487.781 303.764 490.011 301.457 492.829 299.869C495.699 298.28 498.954 297.486 502.593 297.486C505.975 297.486 508.948 298.152 511.51 299.484C514.124 300.817 516.148 302.713 517.583 305.173C519.069 307.633 519.813 310.503 519.813 313.783C519.813 314.706 519.684 315.731 519.428 316.858C519.172 317.986 518.839 318.934 518.429 319.702H492.829C492.829 323.597 493.906 326.544 496.058 328.543C498.262 330.542 500.901 331.541 503.976 331.541C505.77 331.541 507.333 331.336 508.666 330.926C510.049 330.465 511.587 329.747 513.278 328.774C513.483 328.671 513.816 328.492 514.278 328.236C514.79 327.928 515.2 327.774 515.508 327.774C516.174 327.774 516.738 328.031 517.199 328.543C517.66 329.056 517.891 329.696 517.891 330.465C517.891 331.182 517.66 331.823 517.199 332.387C516.738 332.951 515.994 333.54 514.969 334.155C511.587 336.103 507.769 337.076 503.515 337.076ZM510.434 314.167C510.69 313.501 510.818 312.732 510.818 311.861C510.818 309.094 510.075 306.941 508.589 305.404C507.103 303.815 505.078 303.021 502.516 303.021C499.851 303.021 497.621 304.02 495.828 306.019C494.034 308.017 493.034 310.734 492.829 314.167H510.434ZM539.506 337.076C536.79 337.076 534.048 336.666 531.281 335.846C528.564 335.026 526.463 334.052 524.977 332.925V324.622C524.977 324.212 525.105 323.854 525.361 323.546C525.669 323.239 526.104 323.085 526.668 323.085C528.103 323.085 529.077 324.084 529.589 326.083L530.358 329.389C531.178 330.004 532.357 330.516 533.894 330.926C535.432 331.285 537.021 331.464 538.661 331.464C543.478 331.464 545.887 330.106 545.887 327.39C545.887 326.365 545.579 325.519 544.964 324.853C544.349 324.136 543.504 323.495 542.428 322.931C541.351 322.367 539.224 321.342 536.047 319.856C532.101 318.011 529.282 316.243 527.591 314.552C525.951 312.809 525.131 310.606 525.131 307.941C525.131 304.661 526.489 302.098 529.205 300.253C531.921 298.408 535.304 297.486 539.353 297.486C542.12 297.486 544.759 297.972 547.271 298.946C549.833 299.869 551.832 300.945 553.267 302.175V310.093C553.267 310.503 553.113 310.836 552.806 311.092C552.549 311.349 552.139 311.477 551.576 311.477C550.807 311.477 550.192 311.246 549.731 310.785C549.269 310.272 548.911 309.529 548.654 308.556L547.809 305.096C546.938 304.481 545.861 303.994 544.58 303.636C543.35 303.277 542.018 303.097 540.583 303.097C538.686 303.097 537.123 303.431 535.893 304.097C534.714 304.763 534.125 305.814 534.125 307.249C534.125 308.12 534.356 308.863 534.817 309.478C535.329 310.093 536.073 310.682 537.046 311.246C538.02 311.81 539.634 312.63 541.889 313.706L544.426 314.936C548.219 316.781 550.909 318.549 552.498 320.241C554.087 321.881 554.881 324.084 554.881 326.852C554.881 330.388 553.395 332.976 550.423 334.616C547.501 336.256 543.863 337.076 539.506 337.076ZM579.169 337.076C575.582 337.076 572.353 336.333 569.483 334.847C566.613 333.361 564.332 331.131 562.641 328.159C561.001 325.186 560.181 321.547 560.181 317.242C560.181 312.937 561.001 309.324 562.641 306.403C564.332 303.431 566.613 301.201 569.483 299.715C572.353 298.229 575.582 297.486 579.169 297.486C582.757 297.486 585.96 298.229 588.778 299.715C591.648 301.201 593.903 303.431 595.543 306.403C597.235 309.324 598.08 312.937 598.08 317.242C598.08 321.547 597.235 325.186 595.543 328.159C593.903 331.131 591.648 333.361 588.778 334.847C585.96 336.333 582.757 337.076 579.169 337.076ZM579.169 331.541C582.347 331.541 584.781 330.311 586.472 327.851C588.215 325.391 589.086 321.855 589.086 317.242C589.086 312.681 588.215 309.171 586.472 306.711C584.781 304.251 582.347 303.021 579.169 303.021C575.992 303.021 573.532 304.251 571.789 306.711C570.098 309.171 569.252 312.681 569.252 317.242C569.252 321.855 570.098 325.391 571.789 327.851C573.532 330.311 575.992 331.541 579.169 331.541ZM604.004 336C602.826 336 602.236 335.282 602.236 333.847C602.236 331.797 603.594 330.772 606.311 330.772H607.541V303.482H604.004C602.826 303.482 602.236 302.764 602.236 301.329C602.236 300.304 602.595 299.536 603.313 299.023C604.03 298.511 605.029 298.254 606.311 298.254H616.151V306.019H616.381C618.226 303.61 620.328 301.586 622.685 299.946C625.043 298.306 627.298 297.486 629.45 297.486C630.936 297.486 632.089 297.896 632.909 298.716C633.729 299.536 634.139 300.586 634.139 301.867C634.139 302.636 633.986 303.405 633.678 304.174C633.422 304.891 633.063 305.481 632.602 305.942C626.708 305.942 621.353 307.889 616.535 311.784V330.772L619.61 332.002C620.635 332.464 621.353 332.899 621.763 333.309C622.173 333.668 622.378 334.129 622.378 334.693C622.378 335.564 621.993 336 621.224 336H604.004ZM654.601 337.076C651.321 337.076 648.58 336.128 646.376 334.232C644.223 332.336 643.147 329.696 643.147 326.314V304.174H637.92C637.305 304.174 636.818 303.969 636.459 303.559C636.151 303.149 635.998 302.585 635.998 301.867C635.998 300.791 636.356 299.971 637.074 299.407C637.843 298.844 638.842 298.562 640.072 298.562H643.301L644.685 289.952H652.141V298.562H663.98C664.339 298.562 664.621 298.664 664.826 298.869C665.082 299.074 665.21 299.356 665.21 299.715C665.21 300.535 664.877 301.176 664.211 301.637C663.596 302.047 662.545 302.406 661.059 302.713L652.141 304.174V326.852C652.141 328.389 652.526 329.542 653.295 330.311C654.115 331.08 655.216 331.464 656.6 331.464C658.24 331.464 659.778 330.901 661.213 329.773C661.366 329.671 661.623 329.466 661.981 329.158C662.391 328.799 662.827 328.62 663.288 328.62C663.955 328.62 664.493 328.851 664.903 329.312C665.364 329.722 665.595 330.286 665.595 331.003C665.595 332.284 664.595 333.566 662.596 334.847C660.239 336.333 657.574 337.076 654.601 337.076Z" fill="white"/>
<path fill-rule="evenodd" clip-rule="evenodd" d="M339.364 48.5L280.668 130.58L272.488 142.079L229.965 83.3283L229.712 83.6994L229.303 83.06L170.606 165.139L113.048 244.78L140.031 244.644L185.029 181.339L228.957 118.822L259.502 160.335L261.5 162.938L264.114 166.694L318.484 245.329H357.18L402.483 181.339L412.12 167.623L414.5 164L417.174 160.43L446.122 119.232L481.529 167.355L537.365 246.707H565.731L506.038 165.098L448.417 85.4881L448.361 85.5702L446.755 83.06L404.881 141.616L397.643 130.54L347.705 61.5428L339.364 48.5ZM338.24 85.3697L295.091 146.78L285.577 160.163L287.586 162.938L339.086 233.368L388.059 165.139L392.01 159.615L373.135 132.795L338.24 85.3697Z" fill="white"/>
</svg>
