<svg width="1268" height="480" viewBox="0 0 1268 480" fill="none" xmlns="http://www.w3.org/2000/svg">
<path fill-rule="evenodd" clip-rule="evenodd" d="M339.364 48.5L280.668 130.58L272.488 142.079L229.965 83.3283L229.712 83.6994L229.303 83.06L170.606 165.139L113.048 244.78L140.031 244.644L185.029 181.339L228.957 118.822L259.502 160.335L261.5 162.938L264.114 166.694L318.484 245.329H357.18L402.483 181.339L412.12 167.623L414.5 164L417.174 160.43L446.122 119.232L481.529 167.355L537.365 246.707H565.731L506.038 165.098L448.417 85.4881L448.361 85.5702L446.755 83.06L404.881 141.616L397.643 130.54L347.705 61.5428L339.364 48.5ZM338.24 85.3697L295.091 146.78L285.577 160.163L287.586 162.938L339.086 233.368L388.059 165.139L392.01 159.615L373.135 132.795L338.24 85.3697Z" fill="black"/>
<path d="M604.922 190.043C604.307 190.043 603.82 189.838 603.461 189.428C603.154 189.018 603 188.454 603 187.737C603 186.66 603.384 185.866 604.153 185.354C604.922 184.79 605.973 184.508 607.305 184.508H608.612L616.761 142.688L615.223 142.304C613.737 141.894 612.635 141.407 611.917 140.843C611.251 140.228 610.918 139.459 610.918 138.537C610.918 137.255 611.431 136.615 612.456 136.615H630.444L640.822 172.746C641.284 174.335 641.668 176.334 641.976 178.742C642.283 181.151 642.462 182.74 642.514 183.509H642.898C642.949 182.74 643.129 181.151 643.436 178.742C643.744 176.334 644.102 174.335 644.512 172.746L654.122 136.615H672.187C672.597 136.615 672.931 136.769 673.187 137.076C673.494 137.384 673.648 137.87 673.648 138.537C673.648 139.51 673.315 140.279 672.649 140.843C671.982 141.407 670.881 141.894 669.343 142.304L667.806 142.688L676.877 184.431L679.798 185.507C680.823 185.917 681.566 186.327 682.027 186.737C682.489 187.147 682.719 187.685 682.719 188.352C682.719 189.479 682.335 190.043 681.566 190.043H662.347C661.732 190.043 661.246 189.838 660.887 189.428C660.579 189.018 660.426 188.454 660.426 187.737C660.426 186.66 660.81 185.866 661.579 185.354C662.347 184.79 663.398 184.508 664.731 184.508H667.498L660.041 149.069C659.836 148.095 659.657 146.967 659.503 145.686C659.349 144.405 659.272 143.559 659.272 143.149H658.965C658.914 143.559 658.786 144.328 658.581 145.455C658.376 146.583 658.119 147.787 657.812 149.069L646.972 190.043H636.364L624.371 149.069C624.115 148.095 623.884 146.967 623.679 145.686C623.474 144.405 623.346 143.559 623.295 143.149H622.987C622.987 143.559 622.911 144.405 622.757 145.686C622.654 146.967 622.526 148.095 622.372 149.069L615.684 184.508L619.912 185.815C621.194 186.225 622.039 186.635 622.449 187.045C622.859 187.404 623.064 187.916 623.064 188.582C623.064 189.556 622.68 190.043 621.911 190.043H604.922ZM703.24 191.119C699.653 191.119 696.424 190.376 693.554 188.89C690.684 187.404 688.404 185.174 686.713 182.202C685.073 179.229 684.253 175.59 684.253 171.285C684.253 166.98 685.073 163.367 686.713 160.446C688.404 157.474 690.684 155.244 693.554 153.758C696.424 152.272 699.653 151.529 703.24 151.529C706.828 151.529 710.031 152.272 712.85 153.758C715.72 155.244 717.975 157.474 719.615 160.446C721.306 163.367 722.152 166.98 722.152 171.285C722.152 175.59 721.306 179.229 719.615 182.202C717.975 185.174 715.72 187.404 712.85 188.89C710.031 190.376 706.828 191.119 703.24 191.119ZM703.24 185.584C706.418 185.584 708.852 184.354 710.543 181.894C712.286 179.434 713.157 175.898 713.157 171.285C713.157 166.724 712.286 163.214 710.543 160.754C708.852 158.294 706.418 157.064 703.24 157.064C700.063 157.064 697.603 158.294 695.861 160.754C694.169 163.214 693.324 166.724 693.324 171.285C693.324 175.898 694.169 179.434 695.861 181.894C697.603 184.354 700.063 185.584 703.24 185.584ZM742.528 191.119C738.838 191.119 735.789 190.069 733.38 187.967C731.023 185.815 729.844 182.894 729.844 179.204V157.525H726.308C725.129 157.525 724.539 156.807 724.539 155.372C724.539 154.347 724.898 153.579 725.616 153.066C726.333 152.554 727.333 152.297 728.614 152.297H738.839V178.435C738.839 180.587 739.402 182.279 740.529 183.509C741.657 184.687 743.323 185.277 745.526 185.277C747.218 185.277 748.909 184.815 750.6 183.893C752.343 182.919 753.932 181.664 755.367 180.126V157.525H751.83C750.651 157.525 750.062 156.807 750.062 155.372C750.062 154.347 750.421 153.579 751.138 153.066C751.856 152.554 752.855 152.297 754.136 152.297H764.361V184.815L767.205 186.045C768.23 186.507 768.948 186.917 769.358 187.275C769.768 187.634 769.973 188.121 769.973 188.736C769.973 189.607 769.588 190.043 768.819 190.043H755.828V185.43H755.52C751.266 189.223 746.936 191.119 742.528 191.119ZM776.498 190.043C775.319 190.043 774.73 189.325 774.73 187.89C774.73 185.84 776.088 184.815 778.804 184.815H780.035V157.525H776.498C775.319 157.525 774.73 156.807 774.73 155.372C774.73 154.347 775.089 153.579 775.806 153.066C776.524 152.554 777.523 152.297 778.804 152.297H788.645V157.217H788.875C793.129 153.425 797.485 151.529 801.944 151.529C805.634 151.529 808.657 152.605 811.015 154.757C813.424 156.859 814.628 159.754 814.628 163.444V184.815L817.626 186.045C818.651 186.507 819.369 186.942 819.779 187.352C820.189 187.711 820.395 188.172 820.395 188.736C820.395 189.607 820.009 190.043 819.24 190.043H802.02C800.842 190.043 800.252 189.325 800.252 187.89C800.252 185.84 801.61 184.815 804.327 184.815H805.634V164.213C805.634 162.06 805.07 160.395 803.942 159.216C802.815 157.986 801.149 157.371 798.945 157.371C797.254 157.371 795.537 157.858 793.795 158.832C792.052 159.754 790.464 160.984 789.029 162.522V184.815L792.104 186.045C793.129 186.507 793.847 186.942 794.257 187.352C794.667 187.711 794.871 188.172 794.871 188.736C794.871 189.607 794.487 190.043 793.718 190.043H776.498ZM842.485 191.119C839.205 191.119 836.463 190.171 834.259 188.275C832.107 186.379 831.031 183.739 831.031 180.357V158.217H825.803C825.188 158.217 824.701 158.012 824.342 157.602C824.035 157.192 823.882 156.628 823.882 155.91C823.882 154.834 824.24 154.014 824.957 153.45C825.726 152.887 826.726 152.605 827.956 152.605H831.184L832.568 143.995H840.025V152.605H851.864C852.222 152.605 852.504 152.707 852.709 152.912C852.966 153.117 853.094 153.399 853.094 153.758C853.094 154.578 852.761 155.219 852.094 155.68C851.479 156.09 850.429 156.449 848.942 156.756L840.025 158.217V180.895C840.025 182.432 840.409 183.585 841.178 184.354C841.998 185.123 843.1 185.507 844.484 185.507C846.124 185.507 847.661 184.944 849.096 183.816C849.25 183.714 849.506 183.509 849.865 183.201C850.275 182.842 850.712 182.663 851.173 182.663C851.839 182.663 852.376 182.894 852.786 183.355C853.247 183.765 853.479 184.329 853.479 185.046C853.479 186.327 852.479 187.609 850.48 188.89C848.122 190.376 845.457 191.119 842.485 191.119ZM869.819 191.119C866.539 191.119 863.721 190.197 861.363 188.352C859.057 186.455 857.904 183.79 857.904 180.357C857.904 176.462 859.288 173.617 862.055 171.824C864.823 170.03 868.41 168.8 872.818 168.134L881.889 166.75V163.982C881.889 161.83 881.224 160.139 879.891 158.909C878.559 157.679 876.713 157.064 874.355 157.064C872.92 157.064 871.332 157.294 869.59 157.755C867.899 158.217 866.565 158.755 865.591 159.37L864.823 162.522C864.566 163.547 864.182 164.315 863.669 164.828C863.208 165.289 862.593 165.52 861.824 165.52C861.261 165.52 860.825 165.392 860.518 165.135C860.261 164.828 860.133 164.469 860.133 164.059V155.834C862.337 154.552 864.848 153.527 867.667 152.759C870.486 151.939 873.228 151.529 875.893 151.529C880.351 151.529 883.964 152.63 886.732 154.834C889.499 156.987 890.883 160.113 890.883 164.213V185.046L893.344 186.045C894.369 186.507 895.086 186.942 895.496 187.352C895.906 187.711 896.111 188.172 896.111 188.736C896.111 189.607 895.726 190.043 894.958 190.043H882.043V185.815H881.736C880.404 187.404 878.66 188.685 876.508 189.659C874.406 190.632 872.177 191.119 869.819 191.119ZM872.664 185.277C874.253 185.277 875.74 184.892 877.124 184.124C878.559 183.355 879.711 182.355 880.582 181.125C881.453 179.844 881.889 178.486 881.889 177.051V172.054L874.509 173.207C869.435 174.079 866.898 176.334 866.898 179.972C866.898 181.612 867.411 182.919 868.436 183.893C869.461 184.815 870.87 185.277 872.664 185.277ZM909.628 146.839C907.937 146.839 906.528 146.301 905.4 145.225C904.273 144.149 903.708 142.714 903.708 140.92C903.708 139.126 904.273 137.691 905.4 136.615C906.528 135.539 907.937 135 909.628 135C911.32 135 912.729 135.539 913.857 136.615C915.035 137.691 915.624 139.126 915.624 140.92C915.624 142.714 915.035 144.149 913.857 145.225C912.729 146.301 911.32 146.839 909.628 146.839ZM901.786 190.043C900.607 190.043 900.018 189.325 900.018 187.89C900.018 185.84 901.376 184.815 904.092 184.815H905.322V157.525H901.786C900.607 157.525 900.018 156.807 900.018 155.372C900.018 154.347 900.377 153.579 901.094 153.066C901.812 152.554 902.811 152.297 904.092 152.297H914.318V184.815L917.392 186.045C918.417 186.507 919.134 186.942 919.544 187.352C919.954 187.711 920.159 188.172 920.159 188.736C920.159 189.607 919.776 190.043 919.007 190.043H901.786ZM926.044 190.043C924.865 190.043 924.276 189.325 924.276 187.89C924.276 185.84 925.634 184.815 928.35 184.815H929.581V157.525H926.044C924.865 157.525 924.276 156.807 924.276 155.372C924.276 154.347 924.635 153.579 925.353 153.066C926.07 152.554 927.069 152.297 928.35 152.297H938.19V157.217H938.422C942.675 153.425 947.032 151.529 951.49 151.529C955.18 151.529 958.203 152.605 960.561 154.757C962.969 156.859 964.174 159.754 964.174 163.444V184.815L967.172 186.045C968.197 186.507 968.914 186.942 969.324 187.352C969.734 187.711 969.939 188.172 969.939 188.736C969.939 189.607 969.555 190.043 968.786 190.043H951.566C950.388 190.043 949.798 189.325 949.798 187.89C949.798 185.84 951.157 184.815 953.874 184.815H955.18V164.213C955.18 162.06 954.616 160.395 953.488 159.216C952.361 157.986 950.695 157.371 948.491 157.371C946.8 157.371 945.083 157.858 943.341 158.832C941.598 159.754 940.009 160.984 938.574 162.522V184.815L941.65 186.045C942.675 186.507 943.392 186.942 943.802 187.352C944.212 187.711 944.417 188.172 944.417 188.736C944.417 189.607 944.033 190.043 943.264 190.043H926.044ZM988.495 191.119C985.778 191.119 983.037 190.709 980.27 189.889C977.554 189.069 975.451 188.095 973.965 186.968V178.665C973.965 178.255 974.093 177.897 974.35 177.589C974.657 177.282 975.093 177.128 975.656 177.128C977.091 177.128 978.065 178.127 978.578 180.126L979.346 183.432C980.166 184.047 981.345 184.559 982.883 184.969C984.42 185.328 986.01 185.507 987.65 185.507C992.467 185.507 994.875 184.149 994.875 181.433C994.875 180.408 994.568 179.562 993.953 178.896C993.338 178.179 992.493 177.538 991.417 176.974C990.341 176.41 988.213 175.385 985.035 173.899C981.089 172.054 978.27 170.286 976.579 168.595C974.939 166.852 974.12 164.649 974.12 161.984C974.12 158.704 975.477 156.141 978.193 154.296C980.91 152.451 984.292 151.529 988.341 151.529C991.108 151.529 993.748 152.015 996.259 152.989C998.821 153.912 1000.82 154.988 1002.26 156.218V164.136C1002.26 164.546 1002.1 164.879 1001.79 165.135C1001.54 165.392 1001.13 165.52 1000.56 165.52C999.795 165.52 999.18 165.289 998.719 164.828C998.258 164.315 997.899 163.572 997.643 162.599L996.797 159.139C995.926 158.524 994.85 158.037 993.568 157.679C992.338 157.32 991.007 157.14 989.572 157.14C987.676 157.14 986.112 157.474 984.882 158.14C983.704 158.806 983.113 159.857 983.113 161.292C983.113 162.163 983.344 162.906 983.805 163.521C984.318 164.136 985.061 164.725 986.035 165.289C987.008 165.853 988.623 166.673 990.878 167.749L993.415 168.979C997.207 170.824 999.898 172.592 1001.49 174.284C1003.08 175.924 1003.87 178.127 1003.87 180.895C1003.87 184.431 1002.38 187.019 999.411 188.659C996.49 190.299 992.851 191.119 988.495 191.119ZM1033.95 190.043C1033.34 190.043 1032.85 189.838 1032.49 189.428C1032.18 189.018 1032.03 188.454 1032.03 187.737C1032.03 186.66 1032.41 185.866 1033.18 185.354C1033.95 184.79 1035 184.508 1036.33 184.508H1037.64V142.304L1036.1 141.919C1034.62 141.56 1033.52 141.125 1032.8 140.612C1032.13 140.1 1031.8 139.408 1031.8 138.537C1031.8 137.255 1032.29 136.615 1033.26 136.615H1057.4C1063.09 136.615 1067.57 137.922 1070.85 140.535C1074.18 143.149 1075.85 146.916 1075.85 151.836C1075.85 156.5 1074.31 160.087 1071.24 162.599C1068.21 165.11 1064.01 166.468 1058.63 166.673L1074.77 184.739L1078.46 185.815C1079.59 186.174 1080.38 186.584 1080.85 187.045C1081.36 187.455 1081.61 187.993 1081.61 188.659C1081.61 189.582 1081.18 190.043 1080.31 190.043H1066.47L1047.25 166.827V184.508L1050.48 185.738C1051.5 186.148 1052.25 186.584 1052.71 187.045C1053.17 187.506 1053.4 188.07 1053.4 188.736C1053.4 189.146 1053.3 189.479 1053.09 189.735C1052.94 189.94 1052.61 190.043 1052.09 190.043H1033.95ZM1056.63 161.215C1059.65 161.215 1062.01 160.395 1063.7 158.755C1065.39 157.115 1066.24 154.809 1066.24 151.836C1066.24 148.864 1065.39 146.557 1063.7 144.917C1062.01 143.226 1059.65 142.38 1056.63 142.38H1047.25V161.215H1056.63ZM1104.98 191.119C1101.24 191.119 1097.85 190.376 1094.83 188.89C1091.86 187.404 1089.5 185.2 1087.76 182.279C1086.07 179.357 1085.22 175.821 1085.22 171.67C1085.22 167.467 1086.02 163.854 1087.6 160.83C1089.24 157.807 1091.47 155.5 1094.29 153.912C1097.16 152.323 1100.42 151.529 1104.06 151.529C1107.44 151.529 1110.41 152.195 1112.97 153.527C1115.59 154.86 1117.61 156.756 1119.05 159.216C1120.53 161.676 1121.28 164.546 1121.28 167.826C1121.28 168.749 1121.15 169.774 1120.89 170.901C1120.63 172.029 1120.3 172.977 1119.89 173.745H1094.29C1094.29 177.64 1095.37 180.587 1097.52 182.586C1099.72 184.585 1102.36 185.584 1105.44 185.584C1107.23 185.584 1108.8 185.379 1110.13 184.969C1111.51 184.508 1113.05 183.79 1114.74 182.817C1114.95 182.714 1115.28 182.535 1115.74 182.279C1116.25 181.971 1116.66 181.817 1116.97 181.817C1117.64 181.817 1118.2 182.074 1118.66 182.586C1119.12 183.099 1119.35 183.739 1119.35 184.508C1119.35 185.225 1119.12 185.866 1118.66 186.43C1118.2 186.994 1117.46 187.583 1116.43 188.198C1113.05 190.146 1109.23 191.119 1104.98 191.119ZM1111.9 168.21C1112.15 167.544 1112.28 166.775 1112.28 165.904C1112.28 163.137 1111.54 160.984 1110.05 159.447C1108.57 157.858 1106.54 157.064 1103.98 157.064C1101.31 157.064 1099.08 158.063 1097.29 160.062C1095.5 162.06 1094.5 164.777 1094.29 168.21H1111.9ZM1140.97 191.119C1138.25 191.119 1135.51 190.709 1132.74 189.889C1130.03 189.069 1127.93 188.095 1126.44 186.968V178.665C1126.44 178.255 1126.57 177.897 1126.82 177.589C1127.13 177.282 1127.57 177.128 1128.13 177.128C1129.57 177.128 1130.54 178.127 1131.05 180.126L1131.82 183.432C1132.64 184.047 1133.82 184.559 1135.36 184.969C1136.89 185.328 1138.48 185.507 1140.12 185.507C1144.94 185.507 1147.35 184.149 1147.35 181.433C1147.35 180.408 1147.04 179.562 1146.43 178.896C1145.81 178.179 1144.97 177.538 1143.89 176.974C1142.81 176.41 1140.69 175.385 1137.51 173.899C1133.56 172.054 1130.74 170.286 1129.05 168.595C1127.41 166.852 1126.59 164.649 1126.59 161.984C1126.59 158.704 1127.95 156.141 1130.67 154.296C1133.38 152.451 1136.77 151.529 1140.82 151.529C1143.58 151.529 1146.22 152.015 1148.73 152.989C1151.3 153.912 1153.29 154.988 1154.73 156.218V164.136C1154.73 164.546 1154.58 164.879 1154.27 165.135C1154.01 165.392 1153.6 165.52 1153.04 165.52C1152.27 165.52 1151.65 165.289 1151.19 164.828C1150.73 164.315 1150.37 163.572 1150.12 162.599L1149.27 159.139C1148.4 158.524 1147.32 158.037 1146.04 157.679C1144.81 157.32 1143.48 157.14 1142.05 157.14C1140.15 157.14 1138.59 157.474 1137.36 158.14C1136.18 158.806 1135.59 159.857 1135.59 161.292C1135.59 162.163 1135.82 162.906 1136.28 163.521C1136.79 164.136 1137.54 164.725 1138.51 165.289C1139.48 165.853 1141.1 166.673 1143.35 167.749L1145.89 168.979C1149.68 170.824 1152.37 172.592 1153.96 174.284C1155.55 175.924 1156.34 178.127 1156.34 180.895C1156.34 184.431 1154.86 187.019 1151.89 188.659C1148.96 190.299 1145.33 191.119 1140.97 191.119ZM1180.63 191.119C1177.04 191.119 1173.82 190.376 1170.95 188.89C1168.08 187.404 1165.79 185.174 1164.1 182.202C1162.46 179.229 1161.64 175.59 1161.64 171.285C1161.64 166.98 1162.46 163.367 1164.1 160.446C1165.79 157.474 1168.08 155.244 1170.95 153.758C1173.82 152.272 1177.04 151.529 1180.63 151.529C1184.22 151.529 1187.42 152.272 1190.24 153.758C1193.11 155.244 1195.37 157.474 1197.01 160.446C1198.7 163.367 1199.54 166.98 1199.54 171.285C1199.54 175.59 1198.7 179.229 1197.01 182.202C1195.37 185.174 1193.11 187.404 1190.24 188.89C1187.42 190.376 1184.22 191.119 1180.63 191.119ZM1180.63 185.584C1183.81 185.584 1186.24 184.354 1187.93 181.894C1189.68 179.434 1190.55 175.898 1190.55 171.285C1190.55 166.724 1189.68 163.214 1187.93 160.754C1186.24 158.294 1183.81 157.064 1180.63 157.064C1177.45 157.064 1174.99 158.294 1173.25 160.754C1171.56 163.214 1170.71 166.724 1170.71 171.285C1170.71 175.898 1171.56 179.434 1173.25 181.894C1174.99 184.354 1177.45 185.584 1180.63 185.584ZM1205.47 190.043C1204.29 190.043 1203.7 189.325 1203.7 187.89C1203.7 185.84 1205.06 184.815 1207.77 184.815H1209V157.525H1205.47C1204.29 157.525 1203.7 156.807 1203.7 155.372C1203.7 154.347 1204.06 153.579 1204.78 153.066C1205.49 152.554 1206.49 152.297 1207.77 152.297H1217.61V160.062H1217.84C1219.69 157.653 1221.79 155.629 1224.15 153.989C1226.51 152.349 1228.76 151.529 1230.91 151.529C1232.4 151.529 1233.55 151.939 1234.37 152.759C1235.19 153.579 1235.6 154.629 1235.6 155.91C1235.6 156.679 1235.45 157.448 1235.14 158.217C1234.88 158.934 1234.53 159.524 1234.06 159.985C1228.17 159.985 1222.82 161.932 1218 165.827V184.815L1221.07 186.045C1222.1 186.507 1222.82 186.942 1223.23 187.352C1223.64 187.711 1223.84 188.172 1223.84 188.736C1223.84 189.607 1223.46 190.043 1222.69 190.043H1205.47ZM1256.06 191.119C1252.78 191.119 1250.04 190.171 1247.84 188.275C1245.69 186.379 1244.61 183.739 1244.61 180.357V158.217H1239.38C1238.77 158.217 1238.28 158.012 1237.92 157.602C1237.61 157.192 1237.46 156.628 1237.46 155.91C1237.46 154.834 1237.82 154.014 1238.54 153.45C1239.31 152.887 1240.3 152.605 1241.53 152.605H1244.76L1246.15 143.995H1253.6V152.605H1265.44C1265.8 152.605 1266.08 152.707 1266.29 152.912C1266.54 153.117 1266.67 153.399 1266.67 153.758C1266.67 154.578 1266.34 155.219 1265.67 155.68C1265.06 156.09 1264.01 156.449 1262.52 156.756L1253.6 158.217V180.895C1253.6 182.432 1253.99 183.585 1254.76 184.354C1255.58 185.123 1256.68 185.507 1258.06 185.507C1259.7 185.507 1261.24 184.944 1262.68 183.816C1262.83 183.714 1263.09 183.509 1263.44 183.201C1263.85 182.842 1264.29 182.663 1264.75 182.663C1265.42 182.663 1265.96 182.894 1266.37 183.355C1266.83 183.765 1267.06 184.329 1267.06 185.046C1267.06 186.327 1266.06 187.609 1264.06 188.89C1261.7 190.376 1259.04 191.119 1256.06 191.119Z" fill="black"/>
<path fill-rule="evenodd" clip-rule="evenodd" d="M339.364 48.5L280.668 130.58L272.488 142.079L229.965 83.3283L229.712 83.6994L229.303 83.06L170.606 165.139L113.048 244.78L140.031 244.644L185.029 181.339L228.957 118.822L259.502 160.335L261.5 162.938L264.114 166.694L318.484 245.329H357.18L402.483 181.339L412.12 167.623L414.5 164L417.174 160.43L446.122 119.232L481.529 167.355L537.365 246.707H565.731L506.038 165.098L448.417 85.4881L448.361 85.5702L446.755 83.06L404.881 141.616L397.643 130.54L347.705 61.5428L339.364 48.5ZM338.24 85.3697L295.091 146.78L285.577 160.163L287.586 162.938L339.086 233.368L388.059 165.139L392.01 159.615L373.135 132.795L338.24 85.3697Z" fill="black"/>
<path d="M604.922 190.043C604.307 190.043 603.82 189.838 603.461 189.428C603.154 189.018 603 188.454 603 187.737C603 186.66 603.384 185.866 604.153 185.354C604.922 184.79 605.973 184.508 607.305 184.508H608.612L616.761 142.688L615.223 142.304C613.737 141.894 612.635 141.407 611.917 140.843C611.251 140.228 610.918 139.459 610.918 138.537C610.918 137.255 611.431 136.615 612.456 136.615H630.444L640.822 172.746C641.284 174.335 641.668 176.334 641.976 178.742C642.283 181.151 642.462 182.74 642.514 183.509H642.898C642.949 182.74 643.129 181.151 643.436 178.742C643.744 176.334 644.102 174.335 644.512 172.746L654.122 136.615H672.187C672.597 136.615 672.931 136.769 673.187 137.076C673.494 137.384 673.648 137.87 673.648 138.537C673.648 139.51 673.315 140.279 672.649 140.843C671.982 141.407 670.881 141.894 669.343 142.304L667.806 142.688L676.877 184.431L679.798 185.507C680.823 185.917 681.566 186.327 682.027 186.737C682.489 187.147 682.719 187.685 682.719 188.352C682.719 189.479 682.335 190.043 681.566 190.043H662.347C661.732 190.043 661.246 189.838 660.887 189.428C660.579 189.018 660.426 188.454 660.426 187.737C660.426 186.66 660.81 185.866 661.579 185.354C662.347 184.79 663.398 184.508 664.731 184.508H667.498L660.041 149.069C659.836 148.095 659.657 146.967 659.503 145.686C659.349 144.405 659.272 143.559 659.272 143.149H658.965C658.914 143.559 658.786 144.328 658.581 145.455C658.376 146.583 658.119 147.787 657.812 149.069L646.972 190.043H636.364L624.371 149.069C624.115 148.095 623.884 146.967 623.679 145.686C623.474 144.405 623.346 143.559 623.295 143.149H622.987C622.987 143.559 622.911 144.405 622.757 145.686C622.654 146.967 622.526 148.095 622.372 149.069L615.684 184.508L619.912 185.815C621.194 186.225 622.039 186.635 622.449 187.045C622.859 187.404 623.064 187.916 623.064 188.582C623.064 189.556 622.68 190.043 621.911 190.043H604.922ZM703.24 191.119C699.653 191.119 696.424 190.376 693.554 188.89C690.684 187.404 688.404 185.174 686.713 182.202C685.073 179.229 684.253 175.59 684.253 171.285C684.253 166.98 685.073 163.367 686.713 160.446C688.404 157.474 690.684 155.244 693.554 153.758C696.424 152.272 699.653 151.529 703.24 151.529C706.828 151.529 710.031 152.272 712.85 153.758C715.72 155.244 717.975 157.474 719.615 160.446C721.306 163.367 722.152 166.98 722.152 171.285C722.152 175.59 721.306 179.229 719.615 182.202C717.975 185.174 715.72 187.404 712.85 188.89C710.031 190.376 706.828 191.119 703.24 191.119ZM703.24 185.584C706.418 185.584 708.852 184.354 710.543 181.894C712.286 179.434 713.157 175.898 713.157 171.285C713.157 166.724 712.286 163.214 710.543 160.754C708.852 158.294 706.418 157.064 703.24 157.064C700.063 157.064 697.603 158.294 695.861 160.754C694.169 163.214 693.324 166.724 693.324 171.285C693.324 175.898 694.169 179.434 695.861 181.894C697.603 184.354 700.063 185.584 703.24 185.584ZM742.528 191.119C738.838 191.119 735.789 190.069 733.38 187.967C731.023 185.815 729.844 182.894 729.844 179.204V157.525H726.308C725.129 157.525 724.539 156.807 724.539 155.372C724.539 154.347 724.898 153.579 725.616 153.066C726.333 152.554 727.333 152.297 728.614 152.297H738.839V178.435C738.839 180.587 739.402 182.279 740.529 183.509C741.657 184.687 743.323 185.277 745.526 185.277C747.218 185.277 748.909 184.815 750.6 183.893C752.343 182.919 753.932 181.664 755.367 180.126V157.525H751.83C750.651 157.525 750.062 156.807 750.062 155.372C750.062 154.347 750.421 153.579 751.138 153.066C751.856 152.554 752.855 152.297 754.136 152.297H764.361V184.815L767.205 186.045C768.23 186.507 768.948 186.917 769.358 187.275C769.768 187.634 769.973 188.121 769.973 188.736C769.973 189.607 769.588 190.043 768.819 190.043H755.828V185.43H755.52C751.266 189.223 746.936 191.119 742.528 191.119ZM776.498 190.043C775.319 190.043 774.73 189.325 774.73 187.89C774.73 185.84 776.088 184.815 778.804 184.815H780.035V157.525H776.498C775.319 157.525 774.73 156.807 774.73 155.372C774.73 154.347 775.089 153.579 775.806 153.066C776.524 152.554 777.523 152.297 778.804 152.297H788.645V157.217H788.875C793.129 153.425 797.485 151.529 801.944 151.529C805.634 151.529 808.657 152.605 811.015 154.757C813.424 156.859 814.628 159.754 814.628 163.444V184.815L817.626 186.045C818.651 186.507 819.369 186.942 819.779 187.352C820.189 187.711 820.395 188.172 820.395 188.736C820.395 189.607 820.009 190.043 819.24 190.043H802.02C800.842 190.043 800.252 189.325 800.252 187.89C800.252 185.84 801.61 184.815 804.327 184.815H805.634V164.213C805.634 162.06 805.07 160.395 803.942 159.216C802.815 157.986 801.149 157.371 798.945 157.371C797.254 157.371 795.537 157.858 793.795 158.832C792.052 159.754 790.464 160.984 789.029 162.522V184.815L792.104 186.045C793.129 186.507 793.847 186.942 794.257 187.352C794.667 187.711 794.871 188.172 794.871 188.736C794.871 189.607 794.487 190.043 793.718 190.043H776.498ZM842.485 191.119C839.205 191.119 836.463 190.171 834.259 188.275C832.107 186.379 831.031 183.739 831.031 180.357V158.217H825.803C825.188 158.217 824.701 158.012 824.342 157.602C824.035 157.192 823.882 156.628 823.882 155.91C823.882 154.834 824.24 154.014 824.957 153.45C825.726 152.887 826.726 152.605 827.956 152.605H831.184L832.568 143.995H840.025V152.605H851.864C852.222 152.605 852.504 152.707 852.709 152.912C852.966 153.117 853.094 153.399 853.094 153.758C853.094 154.578 852.761 155.219 852.094 155.68C851.479 156.09 850.429 156.449 848.942 156.756L840.025 158.217V180.895C840.025 182.432 840.409 183.585 841.178 184.354C841.998 185.123 843.1 185.507 844.484 185.507C846.124 185.507 847.661 184.944 849.096 183.816C849.25 183.714 849.506 183.509 849.865 183.201C850.275 182.842 850.712 182.663 851.173 182.663C851.839 182.663 852.376 182.894 852.786 183.355C853.247 183.765 853.479 184.329 853.479 185.046C853.479 186.327 852.479 187.609 850.48 188.89C848.122 190.376 845.457 191.119 842.485 191.119ZM869.819 191.119C866.539 191.119 863.721 190.197 861.363 188.352C859.057 186.455 857.904 183.79 857.904 180.357C857.904 176.462 859.288 173.617 862.055 171.824C864.823 170.03 868.41 168.8 872.818 168.134L881.889 166.75V163.982C881.889 161.83 881.224 160.139 879.891 158.909C878.559 157.679 876.713 157.064 874.355 157.064C872.92 157.064 871.332 157.294 869.59 157.755C867.899 158.217 866.565 158.755 865.591 159.37L864.823 162.522C864.566 163.547 864.182 164.315 863.669 164.828C863.208 165.289 862.593 165.52 861.824 165.52C861.261 165.52 860.825 165.392 860.518 165.135C860.261 164.828 860.133 164.469 860.133 164.059V155.834C862.337 154.552 864.848 153.527 867.667 152.759C870.486 151.939 873.228 151.529 875.893 151.529C880.351 151.529 883.964 152.63 886.732 154.834C889.499 156.987 890.883 160.113 890.883 164.213V185.046L893.344 186.045C894.369 186.507 895.086 186.942 895.496 187.352C895.906 187.711 896.111 188.172 896.111 188.736C896.111 189.607 895.726 190.043 894.958 190.043H882.043V185.815H881.736C880.404 187.404 878.66 188.685 876.508 189.659C874.406 190.632 872.177 191.119 869.819 191.119ZM872.664 185.277C874.253 185.277 875.74 184.892 877.124 184.124C878.559 183.355 879.711 182.355 880.582 181.125C881.453 179.844 881.889 178.486 881.889 177.051V172.054L874.509 173.207C869.435 174.079 866.898 176.334 866.898 179.972C866.898 181.612 867.411 182.919 868.436 183.893C869.461 184.815 870.87 185.277 872.664 185.277ZM909.628 146.839C907.937 146.839 906.528 146.301 905.4 145.225C904.273 144.149 903.708 142.714 903.708 140.92C903.708 139.126 904.273 137.691 905.4 136.615C906.528 135.539 907.937 135 909.628 135C911.32 135 912.729 135.539 913.857 136.615C915.035 137.691 915.624 139.126 915.624 140.92C915.624 142.714 915.035 144.149 913.857 145.225C912.729 146.301 911.32 146.839 909.628 146.839ZM901.786 190.043C900.607 190.043 900.018 189.325 900.018 187.89C900.018 185.84 901.376 184.815 904.092 184.815H905.322V157.525H901.786C900.607 157.525 900.018 156.807 900.018 155.372C900.018 154.347 900.377 153.579 901.094 153.066C901.812 152.554 902.811 152.297 904.092 152.297H914.318V184.815L917.392 186.045C918.417 186.507 919.134 186.942 919.544 187.352C919.954 187.711 920.159 188.172 920.159 188.736C920.159 189.607 919.776 190.043 919.007 190.043H901.786ZM926.044 190.043C924.865 190.043 924.276 189.325 924.276 187.89C924.276 185.84 925.634 184.815 928.35 184.815H929.581V157.525H926.044C924.865 157.525 924.276 156.807 924.276 155.372C924.276 154.347 924.635 153.579 925.353 153.066C926.07 152.554 927.069 152.297 928.35 152.297H938.19V157.217H938.422C942.675 153.425 947.032 151.529 951.49 151.529C955.18 151.529 958.203 152.605 960.561 154.757C962.969 156.859 964.174 159.754 964.174 163.444V184.815L967.172 186.045C968.197 186.507 968.914 186.942 969.324 187.352C969.734 187.711 969.939 188.172 969.939 188.736C969.939 189.607 969.555 190.043 968.786 190.043H951.566C950.388 190.043 949.798 189.325 949.798 187.89C949.798 185.84 951.157 184.815 953.874 184.815H955.18V164.213C955.18 162.06 954.616 160.395 953.488 159.216C952.361 157.986 950.695 157.371 948.491 157.371C946.8 157.371 945.083 157.858 943.341 158.832C941.598 159.754 940.009 160.984 938.574 162.522V184.815L941.65 186.045C942.675 186.507 943.392 186.942 943.802 187.352C944.212 187.711 944.417 188.172 944.417 188.736C944.417 189.607 944.033 190.043 943.264 190.043H926.044ZM988.495 191.119C985.778 191.119 983.037 190.709 980.27 189.889C977.554 189.069 975.451 188.095 973.965 186.968V178.665C973.965 178.255 974.093 177.897 974.35 177.589C974.657 177.282 975.093 177.128 975.656 177.128C977.091 177.128 978.065 178.127 978.578 180.126L979.346 183.432C980.166 184.047 981.345 184.559 982.883 184.969C984.42 185.328 986.01 185.507 987.65 185.507C992.467 185.507 994.875 184.149 994.875 181.433C994.875 180.408 994.568 179.562 993.953 178.896C993.338 178.179 992.493 177.538 991.417 176.974C990.341 176.41 988.213 175.385 985.035 173.899C981.089 172.054 978.27 170.286 976.579 168.595C974.939 166.852 974.12 164.649 974.12 161.984C974.12 158.704 975.477 156.141 978.193 154.296C980.91 152.451 984.292 151.529 988.341 151.529C991.108 151.529 993.748 152.015 996.259 152.989C998.821 153.912 1000.82 154.988 1002.26 156.218V164.136C1002.26 164.546 1002.1 164.879 1001.79 165.135C1001.54 165.392 1001.13 165.52 1000.56 165.52C999.795 165.52 999.18 165.289 998.719 164.828C998.258 164.315 997.899 163.572 997.643 162.599L996.797 159.139C995.926 158.524 994.85 158.037 993.568 157.679C992.338 157.32 991.007 157.14 989.572 157.14C987.676 157.14 986.112 157.474 984.882 158.14C983.704 158.806 983.113 159.857 983.113 161.292C983.113 162.163 983.344 162.906 983.805 163.521C984.318 164.136 985.061 164.725 986.035 165.289C987.008 165.853 988.623 166.673 990.878 167.749L993.415 168.979C997.207 170.824 999.898 172.592 1001.49 174.284C1003.08 175.924 1003.87 178.127 1003.87 180.895C1003.87 184.431 1002.38 187.019 999.411 188.659C996.49 190.299 992.851 191.119 988.495 191.119ZM1033.95 190.043C1033.34 190.043 1032.85 189.838 1032.49 189.428C1032.18 189.018 1032.03 188.454 1032.03 187.737C1032.03 186.66 1032.41 185.866 1033.18 185.354C1033.95 184.79 1035 184.508 1036.33 184.508H1037.64V142.304L1036.1 141.919C1034.62 141.56 1033.52 141.125 1032.8 140.612C1032.13 140.1 1031.8 139.408 1031.8 138.537C1031.8 137.255 1032.29 136.615 1033.26 136.615H1057.4C1063.09 136.615 1067.57 137.922 1070.85 140.535C1074.18 143.149 1075.85 146.916 1075.85 151.836C1075.85 156.5 1074.31 160.087 1071.24 162.599C1068.21 165.11 1064.01 166.468 1058.63 166.673L1074.77 184.739L1078.46 185.815C1079.59 186.174 1080.38 186.584 1080.85 187.045C1081.36 187.455 1081.61 187.993 1081.61 188.659C1081.61 189.582 1081.18 190.043 1080.31 190.043H1066.47L1047.25 166.827V184.508L1050.48 185.738C1051.5 186.148 1052.25 186.584 1052.71 187.045C1053.17 187.506 1053.4 188.07 1053.4 188.736C1053.4 189.146 1053.3 189.479 1053.09 189.735C1052.94 189.94 1052.61 190.043 1052.09 190.043H1033.95ZM1056.63 161.215C1059.65 161.215 1062.01 160.395 1063.7 158.755C1065.39 157.115 1066.24 154.809 1066.24 151.836C1066.24 148.864 1065.39 146.557 1063.7 144.917C1062.01 143.226 1059.65 142.38 1056.63 142.38H1047.25V161.215H1056.63ZM1104.98 191.119C1101.24 191.119 1097.85 190.376 1094.83 188.89C1091.86 187.404 1089.5 185.2 1087.76 182.279C1086.07 179.357 1085.22 175.821 1085.22 171.67C1085.22 167.467 1086.02 163.854 1087.6 160.83C1089.24 157.807 1091.47 155.5 1094.29 153.912C1097.16 152.323 1100.42 151.529 1104.06 151.529C1107.44 151.529 1110.41 152.195 1112.97 153.527C1115.59 154.86 1117.61 156.756 1119.05 159.216C1120.53 161.676 1121.28 164.546 1121.28 167.826C1121.28 168.749 1121.15 169.774 1120.89 170.901C1120.63 172.029 1120.3 172.977 1119.89 173.745H1094.29C1094.29 177.64 1095.37 180.587 1097.52 182.586C1099.72 184.585 1102.36 185.584 1105.44 185.584C1107.23 185.584 1108.8 185.379 1110.13 184.969C1111.51 184.508 1113.05 183.79 1114.74 182.817C1114.95 182.714 1115.28 182.535 1115.74 182.279C1116.25 181.971 1116.66 181.817 1116.97 181.817C1117.64 181.817 1118.2 182.074 1118.66 182.586C1119.12 183.099 1119.35 183.739 1119.35 184.508C1119.35 185.225 1119.12 185.866 1118.66 186.43C1118.2 186.994 1117.46 187.583 1116.43 188.198C1113.05 190.146 1109.23 191.119 1104.98 191.119ZM1111.9 168.21C1112.15 167.544 1112.28 166.775 1112.28 165.904C1112.28 163.137 1111.54 160.984 1110.05 159.447C1108.57 157.858 1106.54 157.064 1103.98 157.064C1101.31 157.064 1099.08 158.063 1097.29 160.062C1095.5 162.06 1094.5 164.777 1094.29 168.21H1111.9ZM1140.97 191.119C1138.25 191.119 1135.51 190.709 1132.74 189.889C1130.03 189.069 1127.93 188.095 1126.44 186.968V178.665C1126.44 178.255 1126.57 177.897 1126.82 177.589C1127.13 177.282 1127.57 177.128 1128.13 177.128C1129.57 177.128 1130.54 178.127 1131.05 180.126L1131.82 183.432C1132.64 184.047 1133.82 184.559 1135.36 184.969C1136.89 185.328 1138.48 185.507 1140.12 185.507C1144.94 185.507 1147.35 184.149 1147.35 181.433C1147.35 180.408 1147.04 179.562 1146.43 178.896C1145.81 178.179 1144.97 177.538 1143.89 176.974C1142.81 176.41 1140.69 175.385 1137.51 173.899C1133.56 172.054 1130.74 170.286 1129.05 168.595C1127.41 166.852 1126.59 164.649 1126.59 161.984C1126.59 158.704 1127.95 156.141 1130.67 154.296C1133.38 152.451 1136.77 151.529 1140.82 151.529C1143.58 151.529 1146.22 152.015 1148.73 152.989C1151.3 153.912 1153.29 154.988 1154.73 156.218V164.136C1154.73 164.546 1154.58 164.879 1154.27 165.135C1154.01 165.392 1153.6 165.52 1153.04 165.52C1152.27 165.52 1151.65 165.289 1151.19 164.828C1150.73 164.315 1150.37 163.572 1150.12 162.599L1149.27 159.139C1148.4 158.524 1147.32 158.037 1146.04 157.679C1144.81 157.32 1143.48 157.14 1142.05 157.14C1140.15 157.14 1138.59 157.474 1137.36 158.14C1136.18 158.806 1135.59 159.857 1135.59 161.292C1135.59 162.163 1135.82 162.906 1136.28 163.521C1136.79 164.136 1137.54 164.725 1138.51 165.289C1139.48 165.853 1141.1 166.673 1143.35 167.749L1145.89 168.979C1149.68 170.824 1152.37 172.592 1153.96 174.284C1155.55 175.924 1156.34 178.127 1156.34 180.895C1156.34 184.431 1154.86 187.019 1151.89 188.659C1148.96 190.299 1145.33 191.119 1140.97 191.119ZM1180.63 191.119C1177.04 191.119 1173.82 190.376 1170.95 188.89C1168.08 187.404 1165.79 185.174 1164.1 182.202C1162.46 179.229 1161.64 175.59 1161.64 171.285C1161.64 166.98 1162.46 163.367 1164.1 160.446C1165.79 157.474 1168.08 155.244 1170.95 153.758C1173.82 152.272 1177.04 151.529 1180.63 151.529C1184.22 151.529 1187.42 152.272 1190.24 153.758C1193.11 155.244 1195.37 157.474 1197.01 160.446C1198.7 163.367 1199.54 166.98 1199.54 171.285C1199.54 175.59 1198.7 179.229 1197.01 182.202C1195.37 185.174 1193.11 187.404 1190.24 188.89C1187.42 190.376 1184.22 191.119 1180.63 191.119ZM1180.63 185.584C1183.81 185.584 1186.24 184.354 1187.93 181.894C1189.68 179.434 1190.55 175.898 1190.55 171.285C1190.55 166.724 1189.68 163.214 1187.93 160.754C1186.24 158.294 1183.81 157.064 1180.63 157.064C1177.45 157.064 1174.99 158.294 1173.25 160.754C1171.56 163.214 1170.71 166.724 1170.71 171.285C1170.71 175.898 1171.56 179.434 1173.25 181.894C1174.99 184.354 1177.45 185.584 1180.63 185.584ZM1205.47 190.043C1204.29 190.043 1203.7 189.325 1203.7 187.89C1203.7 185.84 1205.06 184.815 1207.77 184.815H1209V157.525H1205.47C1204.29 157.525 1203.7 156.807 1203.7 155.372C1203.7 154.347 1204.06 153.579 1204.78 153.066C1205.49 152.554 1206.49 152.297 1207.77 152.297H1217.61V160.062H1217.84C1219.69 157.653 1221.79 155.629 1224.15 153.989C1226.51 152.349 1228.76 151.529 1230.91 151.529C1232.4 151.529 1233.55 151.939 1234.37 152.759C1235.19 153.579 1235.6 154.629 1235.6 155.91C1235.6 156.679 1235.45 157.448 1235.14 158.217C1234.88 158.934 1234.53 159.524 1234.06 159.985C1228.17 159.985 1222.82 161.932 1218 165.827V184.815L1221.07 186.045C1222.1 186.507 1222.82 186.942 1223.23 187.352C1223.64 187.711 1223.84 188.172 1223.84 188.736C1223.84 189.607 1223.46 190.043 1222.69 190.043H1205.47ZM1256.06 191.119C1252.78 191.119 1250.04 190.171 1247.84 188.275C1245.69 186.379 1244.61 183.739 1244.61 180.357V158.217H1239.38C1238.77 158.217 1238.28 158.012 1237.92 157.602C1237.61 157.192 1237.46 156.628 1237.46 155.91C1237.46 154.834 1237.82 154.014 1238.54 153.45C1239.31 152.887 1240.3 152.605 1241.53 152.605H1244.76L1246.15 143.995H1253.6V152.605H1265.44C1265.8 152.605 1266.08 152.707 1266.29 152.912C1266.54 153.117 1266.67 153.399 1266.67 153.758C1266.67 154.578 1266.34 155.219 1265.67 155.68C1265.06 156.09 1264.01 156.449 1262.52 156.756L1253.6 158.217V180.895C1253.6 182.432 1253.99 183.585 1254.76 184.354C1255.58 185.123 1256.68 185.507 1258.06 185.507C1259.7 185.507 1261.24 184.944 1262.68 183.816C1262.83 183.714 1263.09 183.509 1263.44 183.201C1263.85 182.842 1264.29 182.663 1264.75 182.663C1265.42 182.663 1265.96 182.894 1266.37 183.355C1266.83 183.765 1267.06 184.329 1267.06 185.046C1267.06 186.327 1266.06 187.609 1264.06 188.89C1261.7 190.376 1259.04 191.119 1256.06 191.119Z" fill="black"/>
</svg>
