<svg width="250" height="250" viewBox="0 0 250 250" fill="none" xmlns="http://www.w3.org/2000/svg">
<path d="M69.1494 183.052L70.1504 182.998L72.3721 189.209L73.2021 189.399V190H70.3018V189.399L71.2295 189.209L70.8486 188.101H68.251L67.8604 189.209L68.7979 189.399V190H66.0488V189.399L66.8691 189.209L69.1494 183.052ZM69.5693 184.292L68.5195 187.3H70.5801L69.5693 184.292ZM74.2422 183.799L73.3926 183.599V183.052L75.292 182.998H76.542C77.5283 182.998 78.2998 183.294 78.8564 183.887C79.4131 184.476 79.6914 185.314 79.6914 186.401C79.6914 187.127 79.5563 187.762 79.2861 188.306C79.0192 188.849 78.6351 189.268 78.1338 189.561C77.6325 189.854 77.0531 190 76.3955 190H73.3926V189.399L74.2422 189.199V183.799ZM76.4443 189.199C77.0986 189.199 77.6113 188.971 77.9824 188.516C78.3568 188.06 78.5439 187.371 78.5439 186.45C78.5439 185.552 78.3633 184.886 78.002 184.453C77.6439 184.017 77.141 183.799 76.4932 183.799H75.292V189.199H76.4443ZM80.1406 183.052L82.9434 182.998V183.599L82.0303 183.789L83.6025 188.652L85.2725 183.799L84.3398 183.599V183.052L87.04 182.998V183.599L86.2637 183.799L84.042 190H83.041L80.9121 183.799L80.1406 183.599V183.052ZM91.4443 185.952V186.748H89.1445V189.199H91.4443L91.6445 188.198H92.2939V190H87.2402V189.399L88.0898 189.199V183.799L87.2402 183.599V183.052L89.1445 182.998H92.1914V184.702H91.542L91.293 183.799H89.1445V185.952H91.4443ZM95.9951 189.399V190H93.2949V189.399L94.1445 189.199V183.799L93.2949 183.599V183.052L95.3945 182.998L98.6953 188.589V183.799L97.8457 183.599V183.052L100.443 182.998V183.599L99.5938 183.799V190H98.3438L95.043 184.492V189.199L95.9951 189.399ZM101.889 189.399L102.89 189.199V183.799H101.591L101.342 184.8H100.688V182.998H106.142V184.8H105.492L105.238 183.799H103.939V189.199L104.94 189.399V190H101.889V189.399ZM112.895 187.148C112.895 188.128 112.688 188.866 112.274 189.36C111.861 189.852 111.151 190.098 110.146 190.098C109.192 190.098 108.511 189.87 108.104 189.414C107.698 188.958 107.494 188.254 107.494 187.3V183.799L106.645 183.599V183.052L109.496 182.998V183.599L108.544 183.799V187.3C108.544 187.801 108.601 188.192 108.715 188.472C108.829 188.752 109.005 188.952 109.242 189.072C109.483 189.189 109.8 189.248 110.194 189.248C110.614 189.248 110.941 189.181 111.176 189.048C111.413 188.914 111.584 188.696 111.688 188.394C111.793 188.091 111.845 187.676 111.845 187.148V183.799L110.893 183.599V183.052L113.744 182.998V183.599L112.895 183.799V187.148ZM115.395 183.799L114.545 183.599V183.052L116.444 182.998H117.543C118.249 182.998 118.801 183.159 119.198 183.481C119.595 183.8 119.794 184.24 119.794 184.8C119.794 185.78 119.361 186.429 118.495 186.748C118.655 186.888 118.855 187.189 119.096 187.651L119.887 189.238L120.595 189.399V190H119.096L118.246 188.149C118.087 187.804 117.947 187.55 117.826 187.388C117.706 187.222 117.577 187.108 117.44 187.046C117.304 186.981 117.121 186.948 116.894 186.948H116.444V189.199L117.294 189.399V190H114.545V189.399L115.395 189.199V183.799ZM117.196 186.201C117.681 186.201 118.061 186.092 118.334 185.874C118.607 185.653 118.744 185.345 118.744 184.951C118.744 184.619 118.627 184.344 118.393 184.126C118.161 183.908 117.862 183.799 117.494 183.799H116.444V186.201H117.196ZM125.351 185.952V186.748H123.051V189.199H125.351L125.551 188.198H126.2V190H121.146V189.399L121.996 189.199V183.799L121.146 183.599V183.052L123.051 182.998H126.098V184.702H125.448L125.199 183.799H123.051V185.952H125.351ZM130.355 183.799L129.506 183.599V183.052L131.405 182.998H132.455C133.194 182.998 133.762 183.182 134.159 183.55C134.556 183.918 134.755 184.417 134.755 185.049C134.755 185.817 134.519 186.401 134.047 186.802C133.578 187.202 132.914 187.402 132.055 187.402H131.405V189.199L132.255 189.399V190H129.506V189.399L130.355 189.199V183.799ZM132.055 186.602C132.602 186.602 133.013 186.481 133.29 186.24C133.567 185.999 133.705 185.653 133.705 185.2C133.705 184.787 133.591 184.45 133.363 184.189C133.139 183.929 132.82 183.799 132.406 183.799H131.405V186.602H132.055ZM138.153 183.052L139.154 182.998L141.376 189.209L142.206 189.399V190H139.306V189.399L140.233 189.209L139.853 188.101H137.255L136.864 189.209L137.802 189.399V190H135.053V189.399L135.873 189.209L138.153 183.052ZM138.573 184.292L137.523 187.3H139.584L138.573 184.292ZM143.5 183.799L142.65 183.599V183.052L144.55 182.998H145.648C146.355 182.998 146.907 183.159 147.304 183.481C147.701 183.8 147.899 184.24 147.899 184.8C147.899 185.78 147.466 186.429 146.601 186.748C146.76 186.888 146.96 187.189 147.201 187.651L147.992 189.238L148.7 189.399V190H147.201L146.352 188.149C146.192 187.804 146.052 187.55 145.932 187.388C145.811 187.222 145.683 187.108 145.546 187.046C145.409 186.981 145.227 186.948 144.999 186.948H144.55V189.199L145.399 189.399V190H142.65V189.399L143.5 189.199V183.799ZM145.302 186.201C145.787 186.201 146.166 186.092 146.439 185.874C146.713 185.653 146.85 185.345 146.85 184.951C146.85 184.619 146.732 184.344 146.498 184.126C146.267 183.908 145.967 183.799 145.6 183.799H144.55V186.201H145.302ZM151.903 183.052L152.904 182.998L155.126 189.209L155.956 189.399V190H153.056V189.399L153.983 189.209L153.603 188.101H151.005L150.614 189.209L151.552 189.399V190H148.803V189.399L149.623 189.209L151.903 183.052ZM152.323 184.292L151.273 187.3H153.334L152.323 184.292ZM156.996 183.799L156.146 183.599V183.052L158.046 182.998H159.296C160.282 182.998 161.054 183.294 161.61 183.887C162.167 184.476 162.445 185.314 162.445 186.401C162.445 187.127 162.31 187.762 162.04 188.306C161.773 188.849 161.389 189.268 160.888 189.561C160.386 189.854 159.807 190 159.149 190H156.146V189.399L156.996 189.199V183.799ZM159.198 189.199C159.853 189.199 160.365 188.971 160.736 188.516C161.111 188.06 161.298 187.371 161.298 186.45C161.298 185.552 161.117 184.886 160.756 184.453C160.398 184.017 159.895 183.799 159.247 183.799H158.046V189.199H159.198ZM163.451 189.399L164.301 189.199V183.799L163.451 183.599V183.052L166.2 182.998V183.599L165.351 183.799V189.199L166.2 189.399V190H163.451V189.399ZM168.354 188.999C168.38 189.012 168.44 189.04 168.534 189.082C168.629 189.121 168.757 189.159 168.92 189.194C169.083 189.23 169.26 189.248 169.452 189.248C169.853 189.248 170.207 189.154 170.517 188.965C170.829 188.776 170.985 188.514 170.985 188.179C170.985 187.964 170.919 187.785 170.785 187.642C170.652 187.495 170.486 187.376 170.287 187.285C170.092 187.194 169.822 187.085 169.477 186.958C169.024 186.799 168.658 186.649 168.378 186.509C168.101 186.369 167.864 186.167 167.665 185.903C167.47 185.64 167.372 185.301 167.372 184.888C167.372 184.227 167.597 183.73 168.046 183.398C168.498 183.066 169.065 182.9 169.745 182.9C170.025 182.9 170.321 182.931 170.634 182.993C170.946 183.052 171.213 183.114 171.435 183.179C171.656 183.241 171.796 183.281 171.854 183.301L171.806 185H171.156L170.814 183.931C170.788 183.924 170.725 183.906 170.624 183.877C170.523 183.844 170.393 183.815 170.233 183.789C170.074 183.763 169.914 183.75 169.755 183.75C169.328 183.75 169 183.846 168.769 184.038C168.537 184.227 168.422 184.455 168.422 184.722C168.422 184.937 168.489 185.117 168.622 185.264C168.756 185.407 168.922 185.526 169.12 185.62C169.322 185.715 169.604 185.825 169.965 185.952C170.398 186.105 170.753 186.25 171.029 186.387C171.306 186.523 171.54 186.717 171.732 186.968C171.928 187.215 172.025 187.529 172.025 187.91C172.025 188.389 171.908 188.794 171.674 189.126C171.439 189.455 171.124 189.699 170.727 189.858C170.333 190.018 169.895 190.098 169.413 190.098C169.101 190.098 168.793 190.068 168.49 190.01C168.188 189.951 167.935 189.891 167.733 189.829C167.535 189.764 167.408 189.722 167.353 189.702V187.949H168.153L168.354 188.999ZM177.323 185.952V186.748H175.023V189.199H177.323L177.523 188.198H178.173V190H173.119V189.399L173.969 189.199V183.799L173.119 183.599V183.052L175.023 182.998H178.07V184.702H177.421L177.172 183.799H175.023V185.952H177.323Z" fill="black"/>
<path d="M40.252 169.332C40.228 169.344 40.204 169.35 40.18 169.35C40.156 169.35 40.108 169.35 40.036 169.35C39.868 169.35 39.67 169.32 39.442 169.26C39.226 169.212 39.01 169.146 38.794 169.062C38.59 168.99 38.41 168.906 38.254 168.81C38.11 168.714 38.02 168.63 37.984 168.558C37.972 168.39 37.966 168.216 37.966 168.036C37.966 167.856 37.966 167.682 37.966 167.514C37.966 166.17 38.062 164.766 38.254 163.302C38.458 161.838 38.788 160.254 39.244 158.55C39.292 158.382 39.34 158.172 39.388 157.92C39.448 157.656 39.508 157.374 39.568 157.074C39.28 157.302 38.938 157.668 38.542 158.172C38.146 158.664 37.726 159.252 37.282 159.936C36.85 160.608 36.412 161.352 35.968 162.168C35.536 162.972 35.14 163.794 34.78 164.634C34.42 165.462 34.108 166.284 33.844 167.1C33.592 167.916 33.436 168.672 33.376 169.368C32.8 169.2 32.398 169.032 32.17 168.864C31.954 168.696 31.846 168.492 31.846 168.252C31.846 168.036 31.912 167.73 32.044 167.334C32.176 166.938 32.362 166.47 32.602 165.93C32.842 165.39 33.136 164.79 33.484 164.13C33.832 163.458 34.216 162.738 34.636 161.97C35.116 161.094 35.584 160.272 36.04 159.504C36.508 158.736 36.964 158.04 37.408 157.416C37.852 156.792 38.284 156.252 38.704 155.796C39.136 155.34 39.562 154.992 39.982 154.752C40.15 154.752 40.372 154.794 40.648 154.878C40.936 154.962 41.212 155.064 41.476 155.184C41.752 155.304 41.992 155.43 42.196 155.562C42.412 155.682 42.532 155.784 42.556 155.868C42.388 156.204 42.19 156.708 41.962 157.38C41.734 158.052 41.5 158.814 41.26 159.666C41.032 160.518 40.81 161.424 40.594 162.384C40.39 163.332 40.228 164.244 40.108 165.12C40.384 164.46 40.702 163.776 41.062 163.068C41.434 162.348 41.824 161.64 42.232 160.944C42.64 160.236 43.054 159.552 43.474 158.892C43.906 158.232 44.326 157.632 44.734 157.092C45.142 156.54 45.52 156.06 45.868 155.652C46.228 155.244 46.546 154.944 46.822 154.752C46.99 154.752 47.212 154.794 47.488 154.878C47.776 154.962 48.052 155.064 48.316 155.184C48.592 155.304 48.832 155.43 49.036 155.562C49.252 155.682 49.372 155.784 49.396 155.868C49.012 156.552 48.676 157.386 48.388 158.37C48.1 159.354 47.854 160.386 47.65 161.466C47.458 162.546 47.308 163.62 47.2 164.688C47.104 165.744 47.056 166.692 47.056 167.532C47.056 167.808 47.056 168.096 47.056 168.396C47.056 168.696 47.068 169.008 47.092 169.332C46.924 169.332 46.72 169.308 46.48 169.26C46.252 169.224 46.024 169.17 45.796 169.098C45.58 169.026 45.382 168.942 45.202 168.846C45.022 168.762 44.896 168.666 44.824 168.558C44.812 168.39 44.806 168.216 44.806 168.036C44.806 167.856 44.806 167.682 44.806 167.514C44.806 166.17 44.902 164.766 45.094 163.302C45.298 161.838 45.628 160.254 46.084 158.55C46.132 158.382 46.186 158.154 46.246 157.866C46.306 157.578 46.366 157.278 46.426 156.966C46.09 157.134 45.706 157.458 45.274 157.938C44.854 158.406 44.422 158.982 43.978 159.666C43.546 160.338 43.114 161.088 42.682 161.916C42.262 162.744 41.878 163.59 41.53 164.454C41.194 165.306 40.906 166.158 40.666 167.01C40.438 167.85 40.3 168.624 40.252 169.332ZM57.868 154.896C58.096 154.992 58.33 155.118 58.57 155.274C58.81 155.418 59.032 155.568 59.236 155.724C59.44 155.88 59.608 156.036 59.74 156.192C59.884 156.336 59.962 156.456 59.974 156.552C59.77 156.504 59.566 156.474 59.362 156.462C59.158 156.438 58.972 156.426 58.804 156.426C58.264 156.426 57.724 156.558 57.184 156.822C56.656 157.086 56.152 157.446 55.672 157.902C55.192 158.358 54.748 158.892 54.34 159.504C53.932 160.116 53.578 160.77 53.278 161.466C52.99 162.162 52.762 162.882 52.594 163.626C52.426 164.37 52.342 165.102 52.342 165.822C52.342 166.758 52.498 167.454 52.81 167.91C53.122 168.366 53.578 168.594 54.178 168.594C54.466 168.594 54.778 168.534 55.114 168.414C55.45 168.306 55.792 168.15 56.14 167.946C56.488 167.742 56.83 167.496 57.166 167.208C57.502 166.92 57.814 166.602 58.102 166.254C58.522 165.75 58.9 165.18 59.236 164.544C59.572 163.896 59.854 163.212 60.082 162.492C60.322 161.772 60.502 161.034 60.622 160.278C60.754 159.51 60.82 158.76 60.82 158.028C60.82 157.74 60.814 157.5 60.802 157.308C60.79 157.104 60.772 156.936 60.748 156.804C60.736 156.66 60.724 156.546 60.712 156.462C60.7 156.378 60.688 156.306 60.676 156.246C60.82 156.318 60.976 156.408 61.144 156.516C61.324 156.612 61.486 156.762 61.63 156.966C61.786 157.158 61.912 157.416 62.008 157.74C62.116 158.064 62.17 158.484 62.17 159C62.17 159.84 62.068 160.668 61.864 161.484C61.672 162.288 61.396 163.056 61.036 163.788C60.688 164.52 60.274 165.204 59.794 165.84C59.314 166.476 58.798 167.034 58.246 167.514C57.526 168.15 56.758 168.642 55.942 168.99C55.126 169.338 54.34 169.512 53.584 169.512C52.48 169.512 51.634 169.158 51.046 168.45C50.47 167.754 50.182 166.722 50.182 165.354C50.182 164.622 50.26 163.848 50.416 163.032C50.584 162.216 50.812 161.412 51.1 160.62C51.4 159.828 51.754 159.078 52.162 158.37C52.57 157.65 53.014 157.02 53.494 156.48C53.986 155.928 54.508 155.49 55.06 155.166C55.624 154.842 56.2 154.68 56.788 154.68C56.98 154.68 57.16 154.698 57.328 154.734C57.496 154.758 57.676 154.812 57.868 154.896ZM69.4898 155.886C68.9618 156.594 68.4818 157.374 68.0498 158.226C67.6178 159.078 67.2458 159.954 66.9338 160.854C66.6338 161.742 66.3998 162.624 66.2318 163.5C66.0758 164.364 65.9978 165.174 65.9978 165.93C65.9978 166.866 66.1358 167.544 66.4118 167.964C66.6878 168.384 67.1618 168.594 67.8338 168.594C68.6138 168.594 69.2978 168.324 69.8858 167.784C70.4738 167.232 71.0258 166.476 71.5418 165.516C71.8778 164.892 72.1658 164.208 72.4058 163.464C72.6458 162.72 72.8378 161.958 72.9818 161.178C73.1378 160.386 73.2518 159.594 73.3238 158.802C73.3958 157.998 73.4318 157.23 73.4318 156.498C73.4318 156.03 73.4258 155.688 73.4138 155.472C73.4018 155.256 73.3838 155.082 73.3598 154.95C73.3958 154.95 73.4858 154.962 73.6298 154.986C73.7738 155.01 73.9358 155.04 74.1158 155.076C74.3078 155.112 74.4938 155.16 74.6738 155.22C74.8658 155.28 75.0278 155.346 75.1598 155.418C75.0998 156.33 74.9858 157.272 74.8178 158.244C74.6618 159.216 74.4518 160.176 74.1878 161.124C73.9238 162.072 73.6178 162.984 73.2698 163.86C72.9218 164.736 72.5318 165.522 72.0998 166.218C71.4638 167.25 70.7498 168.054 69.9578 168.63C69.1658 169.218 68.2298 169.512 67.1498 169.512C66.0458 169.512 65.1878 169.188 64.5758 168.54C63.9638 167.904 63.6578 166.932 63.6578 165.624C63.6578 164.868 63.7418 164.016 63.9098 163.068C64.0778 162.108 64.2998 161.136 64.5758 160.152C64.8638 159.156 65.1938 158.19 65.5658 157.254C65.9378 156.306 66.3278 155.46 66.7358 154.716C66.9398 154.728 67.1798 154.77 67.4558 154.842C67.7318 154.914 68.0018 155.01 68.2658 155.13C68.5298 155.238 68.7698 155.364 68.9858 155.508C69.2138 155.64 69.3818 155.766 69.4898 155.886ZM76.7305 169.368C76.0465 169.164 75.5845 168.966 75.3445 168.774C75.1045 168.594 74.9845 168.342 74.9845 168.018C74.9845 167.658 75.0685 167.154 75.2365 166.506C75.4045 165.846 75.6205 165.114 75.8845 164.31C76.1605 163.506 76.4725 162.666 76.8205 161.79C77.1685 160.914 77.5225 160.074 77.8825 159.27C78.2425 158.466 78.5905 157.734 78.9265 157.074C79.2745 156.402 79.5805 155.88 79.8445 155.508L79.7185 154.752C79.8865 154.752 80.1205 154.794 80.4205 154.878C80.7205 154.962 81.0205 155.064 81.3205 155.184C81.6325 155.304 81.9025 155.43 82.1305 155.562C82.3705 155.682 82.5025 155.784 82.5265 155.868C82.4665 156.156 82.4185 156.594 82.3825 157.182C82.3465 157.758 82.3285 158.376 82.3285 159.036C82.3285 160.344 82.3765 161.628 82.4725 162.888C82.5805 164.136 82.8205 165.408 83.1925 166.704C83.3845 165.744 83.5885 164.79 83.8045 163.842C84.0325 162.882 84.2665 161.97 84.5065 161.106C84.7465 160.23 84.9865 159.42 85.2265 158.676C85.4665 157.932 85.6945 157.284 85.9105 156.732C86.1385 156.168 86.3485 155.73 86.5405 155.418C86.7325 155.094 86.9065 154.92 87.0625 154.896C87.1945 154.92 87.3385 154.974 87.4945 155.058C87.6505 155.13 87.8005 155.22 87.9445 155.328C88.0885 155.436 88.2205 155.556 88.3405 155.688C88.4605 155.82 88.5565 155.952 88.6285 156.084C88.2445 156.24 87.8605 156.606 87.4765 157.182C87.1045 157.758 86.7445 158.46 86.3965 159.288C86.0605 160.104 85.7425 160.992 85.4425 161.952C85.1545 162.912 84.8965 163.86 84.6685 164.796C84.4525 165.72 84.2785 166.578 84.1465 167.37C84.0265 168.162 83.9605 168.798 83.9485 169.278C83.9485 169.302 83.9545 169.32 83.9665 169.332C83.9305 169.344 83.8885 169.35 83.8405 169.35C83.8045 169.35 83.7685 169.35 83.7325 169.35C83.1805 169.35 82.6885 169.278 82.2565 169.134C81.8365 169.002 81.5605 168.81 81.4285 168.558C81.1765 167.55 80.9665 166.578 80.7985 165.642C80.6305 164.706 80.4865 163.77 80.3665 162.834C80.2585 161.898 80.1685 160.956 80.0965 160.008C80.0365 159.048 79.9885 158.046 79.9525 157.002C79.7245 157.362 79.4845 157.836 79.2325 158.424C78.9805 159 78.7345 159.636 78.4945 160.332C78.2545 161.028 78.0205 161.76 77.7925 162.528C77.5765 163.296 77.3845 164.046 77.2165 164.778C77.0485 165.51 76.9165 166.206 76.8205 166.866C76.7245 167.514 76.6765 168.078 76.6765 168.558C76.6765 168.81 76.6765 168.99 76.6765 169.098C76.6885 169.206 76.7065 169.296 76.7305 169.368ZM90.9797 157.092C90.4997 157.092 90.1277 156.96 89.8637 156.696C89.6117 156.42 89.4857 156.09 89.4857 155.706C89.4857 155.61 89.4977 155.496 89.5217 155.364C89.5577 155.232 89.5997 155.118 89.6477 155.022C89.8037 155.094 90.0317 155.148 90.3317 155.184C90.6437 155.208 91.0037 155.22 91.4117 155.22C92.0237 155.22 92.7137 155.196 93.4817 155.148C94.2617 155.088 95.0057 155.028 95.7137 154.968C96.4217 154.908 97.0457 154.854 97.5857 154.806C98.1257 154.746 98.4737 154.716 98.6297 154.716C99.0737 154.716 99.3917 154.884 99.5837 155.22C99.7877 155.544 99.9377 155.982 100.034 156.534C99.7217 156.51 99.4097 156.492 99.0977 156.48C98.7977 156.456 98.5397 156.444 98.3237 156.444C97.9397 156.444 97.5497 156.456 97.1537 156.48C96.7697 156.504 96.3797 156.54 95.9837 156.588C95.8157 156.936 95.6297 157.35 95.4257 157.83C95.2217 158.298 95.0177 158.79 94.8137 159.306C94.6217 159.822 94.4357 160.338 94.2557 160.854C94.0757 161.358 93.9197 161.814 93.7877 162.222C93.5237 163.014 93.2897 163.746 93.0857 164.418C92.8937 165.09 92.7197 165.72 92.5637 166.308C92.4197 166.884 92.2937 167.436 92.1857 167.964C92.0777 168.492 91.9817 169.008 91.8977 169.512C91.0937 169.392 90.4217 168.888 89.8817 168C89.9777 167.628 90.0917 167.226 90.2237 166.794C90.3677 166.35 90.5297 165.852 90.7097 165.3C90.9017 164.736 91.1237 164.1 91.3757 163.392C91.6277 162.684 91.9157 161.88 92.2397 160.98C92.3597 160.644 92.4857 160.296 92.6177 159.936C92.7497 159.564 92.8757 159.198 92.9957 158.838C93.1277 158.478 93.2417 158.13 93.3377 157.794C93.4457 157.458 93.5357 157.152 93.6077 156.876C93.1037 156.936 92.6237 156.99 92.1677 157.038C91.7237 157.074 91.3277 157.092 90.9797 157.092ZM97.9639 169.368C97.3879 169.2 96.9859 169.032 96.7579 168.864C96.5419 168.696 96.4339 168.486 96.4339 168.234C96.4339 168.042 96.4879 167.772 96.5959 167.424C96.7039 167.076 96.8599 166.668 97.0639 166.2C97.2799 165.72 97.5319 165.192 97.8199 164.616C98.1199 164.04 98.4559 163.422 98.8279 162.762C98.5159 162.75 98.2339 162.744 97.9819 162.744C97.7419 162.732 97.5439 162.726 97.3879 162.726C97.4599 162.546 97.6639 162.39 97.9999 162.258C98.3359 162.126 98.7799 162.012 99.3319 161.916C99.7999 161.136 100.298 160.392 100.826 159.684C101.366 158.976 101.906 158.328 102.446 157.74C102.986 157.14 103.526 156.618 104.066 156.174C104.606 155.718 105.122 155.358 105.614 155.094C105.626 155.01 105.632 154.938 105.632 154.878C105.644 154.818 105.65 154.776 105.65 154.752C105.818 154.752 106.04 154.794 106.316 154.878C106.604 154.962 106.88 155.064 107.144 155.184C107.42 155.304 107.66 155.43 107.864 155.562C108.08 155.682 108.2 155.784 108.224 155.868C107.828 156.564 107.438 157.608 107.054 159C106.67 160.38 106.352 162.036 106.1 163.968C106.04 164.448 105.986 164.994 105.938 165.606C105.902 166.218 105.884 166.902 105.884 167.658C105.884 167.922 105.884 168.192 105.884 168.468C105.884 168.744 105.896 169.032 105.92 169.332C105.896 169.344 105.872 169.35 105.848 169.35C105.824 169.35 105.776 169.35 105.704 169.35C105.536 169.35 105.338 169.32 105.11 169.26C104.894 169.212 104.678 169.146 104.462 169.062C104.258 168.99 104.078 168.906 103.922 168.81C103.778 168.714 103.688 168.63 103.652 168.558C103.64 168.402 103.634 168.246 103.634 168.09C103.634 167.946 103.634 167.79 103.634 167.622C103.634 166.878 103.658 166.122 103.706 165.354C103.766 164.586 103.862 163.794 103.994 162.978C103.826 162.966 103.604 162.954 103.328 162.942C103.052 162.918 102.74 162.9 102.392 162.888C102.056 162.876 101.69 162.864 101.294 162.852C100.91 162.828 100.532 162.81 100.16 162.798C99.8719 163.338 99.6019 163.878 99.3499 164.418C99.0979 164.946 98.8819 165.48 98.7019 166.02C98.4979 166.596 98.3299 167.172 98.1979 167.748C98.0779 168.324 97.9999 168.864 97.9639 169.368ZM104.912 158.55C104.96 158.382 105.014 158.154 105.074 157.866C105.146 157.566 105.212 157.254 105.272 156.93C104.972 157.038 104.636 157.236 104.264 157.524C103.904 157.812 103.526 158.172 103.13 158.604C102.746 159.024 102.35 159.504 101.942 160.044C101.546 160.572 101.162 161.136 100.79 161.736C101.798 161.652 102.944 161.598 104.228 161.574C104.324 161.07 104.426 160.572 104.534 160.08C104.654 159.576 104.78 159.066 104.912 158.55ZM109.085 166.974C109.085 166.542 109.151 165.984 109.283 165.3C109.427 164.604 109.607 163.86 109.823 163.068C110.051 162.264 110.309 161.448 110.597 160.62C110.885 159.78 111.179 158.994 111.479 158.262C111.779 157.53 112.073 156.888 112.361 156.336C112.649 155.784 112.907 155.388 113.135 155.148C113.255 155.16 113.411 155.208 113.603 155.292C113.807 155.364 114.011 155.454 114.215 155.562C114.419 155.67 114.605 155.79 114.773 155.922C114.941 156.042 115.049 156.156 115.097 156.264C114.749 156.576 114.401 157.05 114.053 157.686C113.717 158.31 113.387 159.024 113.063 159.828C112.751 160.632 112.457 161.484 112.181 162.384C111.905 163.272 111.665 164.136 111.461 164.976C111.257 165.816 111.095 166.596 110.975 167.316C110.867 168.036 110.813 168.618 110.813 169.062C110.813 169.266 110.831 169.392 110.867 169.44C110.603 169.428 110.411 169.38 110.291 169.296C110.171 169.224 110.075 169.14 110.003 169.044C109.943 168.96 109.883 168.87 109.823 168.774C109.775 168.69 109.697 168.624 109.589 168.576C109.505 168.54 109.433 168.456 109.373 168.324C109.313 168.192 109.259 168.048 109.211 167.892C109.175 167.724 109.145 167.556 109.121 167.388C109.097 167.22 109.085 167.082 109.085 166.974ZM115.824 169.368C115.14 169.164 114.678 168.966 114.438 168.774C114.198 168.594 114.078 168.342 114.078 168.018C114.078 167.658 114.162 167.154 114.33 166.506C114.498 165.846 114.714 165.114 114.978 164.31C115.254 163.506 115.566 162.666 115.914 161.79C116.262 160.914 116.616 160.074 116.976 159.27C117.336 158.466 117.684 157.734 118.02 157.074C118.368 156.402 118.674 155.88 118.938 155.508L118.812 154.752C118.98 154.752 119.214 154.794 119.514 154.878C119.814 154.962 120.114 155.064 120.414 155.184C120.726 155.304 120.996 155.43 121.224 155.562C121.464 155.682 121.596 155.784 121.62 155.868C121.56 156.156 121.512 156.594 121.476 157.182C121.44 157.758 121.422 158.376 121.422 159.036C121.422 160.344 121.47 161.628 121.566 162.888C121.674 164.136 121.914 165.408 122.286 166.704C122.478 165.744 122.682 164.79 122.898 163.842C123.126 162.882 123.36 161.97 123.6 161.106C123.84 160.23 124.08 159.42 124.32 158.676C124.56 157.932 124.788 157.284 125.004 156.732C125.232 156.168 125.442 155.73 125.634 155.418C125.826 155.094 126 154.92 126.156 154.896C126.288 154.92 126.432 154.974 126.588 155.058C126.744 155.13 126.894 155.22 127.038 155.328C127.182 155.436 127.314 155.556 127.434 155.688C127.554 155.82 127.65 155.952 127.722 156.084C127.338 156.24 126.954 156.606 126.57 157.182C126.198 157.758 125.838 158.46 125.49 159.288C125.154 160.104 124.836 160.992 124.536 161.952C124.248 162.912 123.99 163.86 123.762 164.796C123.546 165.72 123.372 166.578 123.24 167.37C123.12 168.162 123.054 168.798 123.042 169.278C123.042 169.302 123.048 169.32 123.06 169.332C123.024 169.344 122.982 169.35 122.934 169.35C122.898 169.35 122.862 169.35 122.826 169.35C122.274 169.35 121.782 169.278 121.35 169.134C120.93 169.002 120.654 168.81 120.522 168.558C120.27 167.55 120.06 166.578 119.892 165.642C119.724 164.706 119.58 163.77 119.46 162.834C119.352 161.898 119.262 160.956 119.19 160.008C119.13 159.048 119.082 158.046 119.046 157.002C118.818 157.362 118.578 157.836 118.326 158.424C118.074 159 117.828 159.636 117.588 160.332C117.348 161.028 117.114 161.76 116.886 162.528C116.67 163.296 116.478 164.046 116.31 164.778C116.142 165.51 116.01 166.206 115.914 166.866C115.818 167.514 115.77 168.078 115.77 168.558C115.77 168.81 115.77 168.99 115.77 169.098C115.782 169.206 115.8 169.296 115.824 169.368ZM138.245 155.868C138.281 156.072 138.305 156.216 138.317 156.3C138.341 156.372 138.353 156.474 138.353 156.606C138.353 157.002 138.263 157.374 138.083 157.722C137.915 158.058 137.681 158.298 137.381 158.442C137.141 158.118 136.847 157.842 136.499 157.614C136.151 157.374 135.767 157.182 135.347 157.038C134.939 156.882 134.513 156.768 134.069 156.696C133.625 156.624 133.193 156.588 132.773 156.588C132.353 156.588 131.957 156.624 131.585 156.696C131.225 156.756 130.901 156.846 130.613 156.966C130.337 157.074 130.115 157.212 129.947 157.38C129.791 157.548 129.713 157.74 129.713 157.956C129.749 158.22 129.911 158.49 130.199 158.766C130.487 159.03 130.841 159.294 131.261 159.558C131.681 159.81 132.143 160.062 132.647 160.314C133.163 160.566 133.667 160.806 134.159 161.034C134.771 161.322 135.299 161.592 135.743 161.844C136.187 162.084 136.553 162.354 136.841 162.654C137.129 162.942 137.345 163.272 137.489 163.644C137.633 164.016 137.705 164.466 137.705 164.994C137.705 165.606 137.603 166.182 137.399 166.722C137.195 167.25 136.895 167.712 136.499 168.108C136.115 168.504 135.647 168.81 135.095 169.026C134.543 169.254 133.925 169.368 133.241 169.368C132.569 169.368 131.843 169.266 131.063 169.062C130.283 168.858 129.551 168.576 128.867 168.216C128.195 167.868 127.631 167.466 127.175 167.01C126.731 166.542 126.509 166.05 126.509 165.534C126.509 165.294 126.575 164.988 126.707 164.616C126.851 164.244 127.103 163.854 127.463 163.446C127.499 163.806 127.691 164.232 128.039 164.724C128.399 165.216 128.933 165.672 129.641 166.092C130.301 166.476 130.979 166.758 131.675 166.938C132.383 167.106 133.043 167.19 133.655 167.19C134.327 167.19 134.873 167.106 135.293 166.938C135.713 166.77 136.043 166.572 136.283 166.344C136.523 166.104 136.691 165.864 136.787 165.624C136.883 165.384 136.937 165.192 136.949 165.048C136.937 164.808 136.823 164.58 136.607 164.364C136.403 164.136 136.121 163.92 135.761 163.716C135.413 163.5 135.005 163.284 134.537 163.068C134.069 162.852 133.583 162.636 133.079 162.42C132.323 162.084 131.669 161.772 131.117 161.484C130.577 161.184 130.127 160.884 129.767 160.584C129.419 160.272 129.161 159.948 128.993 159.612C128.837 159.276 128.759 158.892 128.759 158.46C128.759 157.788 128.963 157.152 129.371 156.552C129.779 155.952 130.367 155.496 131.135 155.184C131.519 155.016 131.927 154.896 132.359 154.824C132.803 154.752 133.235 154.716 133.655 154.716C134.447 154.716 135.221 154.824 135.977 155.04C136.733 155.256 137.489 155.532 138.245 155.868ZM155.677 158.082C155.677 158.658 155.545 159.204 155.281 159.72C155.029 160.224 154.675 160.68 154.219 161.088C153.763 161.484 153.229 161.82 152.617 162.096C152.005 162.372 151.339 162.558 150.619 162.654C150.799 163.194 151.015 163.752 151.267 164.328C151.531 164.892 151.813 165.438 152.113 165.966C152.413 166.494 152.725 166.98 153.049 167.424C153.373 167.868 153.691 168.234 154.003 168.522C153.943 168.642 153.853 168.762 153.733 168.882C153.625 169.002 153.493 169.11 153.337 169.206C153.193 169.314 153.037 169.398 152.869 169.458C152.713 169.53 152.563 169.566 152.419 169.566C152.155 169.566 151.903 169.44 151.663 169.188C151.423 168.936 151.177 168.54 150.925 168C150.685 167.448 150.427 166.74 150.151 165.876C149.887 165 149.593 163.95 149.269 162.726C149.137 162.726 149.005 162.726 148.873 162.726C148.741 162.726 148.639 162.714 148.567 162.69C148.483 162.642 148.393 162.558 148.297 162.438C147.973 163.134 147.685 163.788 147.433 164.4C147.181 165.012 146.953 165.606 146.749 166.182C146.557 166.746 146.383 167.298 146.227 167.838C146.083 168.366 145.957 168.906 145.849 169.458C145.441 169.362 145.087 169.188 144.787 168.936C144.487 168.684 144.205 168.33 143.941 167.874C143.989 167.766 144.037 167.664 144.085 167.568C144.145 167.46 144.217 167.316 144.301 167.136C144.385 166.944 144.487 166.704 144.607 166.416C144.739 166.128 144.907 165.744 145.111 165.264C145.327 164.784 145.579 164.196 145.867 163.5C146.167 162.804 146.527 161.958 146.947 160.962C147.139 160.518 147.301 160.128 147.433 159.792C147.577 159.456 147.703 159.138 147.811 158.838C147.919 158.526 148.015 158.22 148.099 157.92C148.195 157.608 148.291 157.254 148.387 156.858C147.835 157.05 147.319 157.266 146.839 157.506C146.371 157.734 145.981 157.98 145.669 158.244C145.561 158.172 145.447 158.064 145.327 157.92C145.219 157.776 145.117 157.62 145.021 157.452C144.925 157.272 144.841 157.092 144.769 156.912C144.697 156.732 144.655 156.57 144.643 156.426C145.003 156.186 145.441 155.964 145.957 155.76C146.485 155.556 147.043 155.382 147.631 155.238C148.219 155.082 148.819 154.962 149.431 154.878C150.043 154.794 150.613 154.752 151.141 154.752C152.581 154.752 153.697 155.052 154.489 155.652C155.281 156.24 155.677 157.05 155.677 158.082ZM151.285 156.57C151.201 156.678 151.069 156.894 150.889 157.218C150.709 157.542 150.499 157.932 150.259 158.388C150.031 158.832 149.785 159.318 149.521 159.846C149.269 160.374 149.023 160.896 148.783 161.412C149.683 161.412 150.511 161.328 151.267 161.16C152.023 160.992 152.677 160.758 153.229 160.458C153.781 160.146 154.207 159.786 154.507 159.378C154.819 158.958 154.975 158.496 154.975 157.992C154.975 157.392 154.759 156.936 154.327 156.624C153.895 156.3 153.229 156.138 152.329 156.138C152.125 156.138 151.921 156.15 151.717 156.174C151.513 156.186 151.297 156.204 151.069 156.228L151.285 156.57ZM163.176 160.332C163.572 160.332 163.878 160.44 164.094 160.656C164.322 160.872 164.436 161.172 164.436 161.556C164.436 161.652 164.424 161.754 164.4 161.862C164.388 161.958 164.37 162.042 164.346 162.114C164.19 162.09 164.016 162.072 163.824 162.06C163.632 162.036 163.404 162.024 163.14 162.024C162.624 162.024 162.102 162.072 161.574 162.168C161.046 162.252 160.542 162.324 160.062 162.384C159.786 163.02 159.534 163.638 159.306 164.238C159.078 164.826 158.88 165.366 158.712 165.858C158.556 166.35 158.43 166.776 158.334 167.136C158.25 167.496 158.202 167.766 158.19 167.946C159.162 167.742 160.14 167.568 161.124 167.424C162.12 167.28 163.164 167.172 164.256 167.1C164.388 167.304 164.496 167.526 164.58 167.766C164.676 168.006 164.724 168.264 164.724 168.54C164.724 168.612 164.724 168.69 164.724 168.774C164.724 168.858 164.712 168.942 164.688 169.026C164.352 169.014 163.998 169.002 163.626 168.99C163.254 168.99 162.768 168.99 162.168 168.99C161.772 168.99 161.394 168.996 161.034 169.008C160.686 169.032 160.332 169.062 159.972 169.098C159.612 169.134 159.228 169.182 158.82 169.242C158.424 169.302 157.974 169.374 157.47 169.458C156.918 169.242 156.384 168.714 155.868 167.874C156.072 167.442 156.354 166.788 156.714 165.912C157.086 165.024 157.554 163.842 158.118 162.366C157.578 162.198 157.224 161.898 157.056 161.466C157.116 161.406 157.29 161.334 157.578 161.25C157.866 161.154 158.22 161.058 158.64 160.962C158.82 160.494 158.97 160.086 159.09 159.738C159.222 159.39 159.336 159.066 159.432 158.766C159.528 158.454 159.612 158.154 159.684 157.866C159.768 157.566 159.846 157.242 159.918 156.894C159.498 156.87 159.168 156.756 158.928 156.552C158.688 156.336 158.568 156.06 158.568 155.724C158.568 155.628 158.58 155.514 158.604 155.382C158.64 155.25 158.676 155.136 158.712 155.04C158.952 155.076 159.18 155.1 159.396 155.112C159.624 155.124 159.918 155.13 160.278 155.13C161.034 155.13 161.742 155.112 162.402 155.076C163.062 155.028 163.656 154.98 164.184 154.932C164.724 154.884 165.186 154.842 165.57 154.806C165.954 154.758 166.248 154.734 166.452 154.734C166.728 154.734 166.974 154.878 167.19 155.166C167.406 155.454 167.568 155.862 167.676 156.39C167.304 156.354 166.998 156.33 166.758 156.318C166.53 156.306 166.326 156.3 166.146 156.3C165.486 156.3 164.88 156.336 164.328 156.408C163.788 156.468 163.266 156.534 162.762 156.606C162.69 156.714 162.606 156.852 162.51 157.02C162.426 157.188 162.312 157.422 162.168 157.722C162.024 158.022 161.844 158.4 161.628 158.856C161.424 159.312 161.172 159.882 160.872 160.566C161.328 160.494 161.754 160.44 162.15 160.404C162.558 160.356 162.9 160.332 163.176 160.332ZM178.447 155.868C178.483 156.072 178.507 156.216 178.519 156.3C178.543 156.372 178.555 156.474 178.555 156.606C178.555 157.002 178.465 157.374 178.285 157.722C178.117 158.058 177.883 158.298 177.583 158.442C177.343 158.118 177.049 157.842 176.701 157.614C176.353 157.374 175.969 157.182 175.549 157.038C175.141 156.882 174.715 156.768 174.271 156.696C173.827 156.624 173.395 156.588 172.975 156.588C172.555 156.588 172.159 156.624 171.787 156.696C171.427 156.756 171.103 156.846 170.815 156.966C170.539 157.074 170.317 157.212 170.149 157.38C169.993 157.548 169.915 157.74 169.915 157.956C169.951 158.22 170.113 158.49 170.401 158.766C170.689 159.03 171.043 159.294 171.463 159.558C171.883 159.81 172.345 160.062 172.849 160.314C173.365 160.566 173.869 160.806 174.361 161.034C174.973 161.322 175.501 161.592 175.945 161.844C176.389 162.084 176.755 162.354 177.043 162.654C177.331 162.942 177.547 163.272 177.691 163.644C177.835 164.016 177.907 164.466 177.907 164.994C177.907 165.606 177.805 166.182 177.601 166.722C177.397 167.25 177.097 167.712 176.701 168.108C176.317 168.504 175.849 168.81 175.297 169.026C174.745 169.254 174.127 169.368 173.443 169.368C172.771 169.368 172.045 169.266 171.265 169.062C170.485 168.858 169.753 168.576 169.069 168.216C168.397 167.868 167.833 167.466 167.377 167.01C166.933 166.542 166.711 166.05 166.711 165.534C166.711 165.294 166.777 164.988 166.909 164.616C167.053 164.244 167.305 163.854 167.665 163.446C167.701 163.806 167.893 164.232 168.241 164.724C168.601 165.216 169.135 165.672 169.843 166.092C170.503 166.476 171.181 166.758 171.877 166.938C172.585 167.106 173.245 167.19 173.857 167.19C174.529 167.19 175.075 167.106 175.495 166.938C175.915 166.77 176.245 166.572 176.485 166.344C176.725 166.104 176.893 165.864 176.989 165.624C177.085 165.384 177.139 165.192 177.151 165.048C177.139 164.808 177.025 164.58 176.809 164.364C176.605 164.136 176.323 163.92 175.963 163.716C175.615 163.5 175.207 163.284 174.739 163.068C174.271 162.852 173.785 162.636 173.281 162.42C172.525 162.084 171.871 161.772 171.319 161.484C170.779 161.184 170.329 160.884 169.969 160.584C169.621 160.272 169.363 159.948 169.195 159.612C169.039 159.276 168.961 158.892 168.961 158.46C168.961 157.788 169.165 157.152 169.573 156.552C169.981 155.952 170.569 155.496 171.337 155.184C171.721 155.016 172.129 154.896 172.561 154.824C173.005 154.752 173.437 154.716 173.857 154.716C174.649 154.716 175.423 154.824 176.179 155.04C176.935 155.256 177.691 155.532 178.447 155.868ZM187.647 154.896C187.875 154.992 188.109 155.118 188.349 155.274C188.589 155.418 188.811 155.568 189.015 155.724C189.219 155.88 189.387 156.036 189.519 156.192C189.663 156.336 189.741 156.456 189.753 156.552C189.549 156.504 189.345 156.474 189.141 156.462C188.937 156.438 188.751 156.426 188.583 156.426C188.043 156.426 187.503 156.558 186.963 156.822C186.435 157.086 185.931 157.446 185.451 157.902C184.971 158.358 184.527 158.892 184.119 159.504C183.711 160.116 183.357 160.77 183.057 161.466C182.769 162.162 182.541 162.882 182.373 163.626C182.205 164.37 182.121 165.102 182.121 165.822C182.121 166.758 182.277 167.454 182.589 167.91C182.901 168.366 183.357 168.594 183.957 168.594C184.245 168.594 184.557 168.534 184.893 168.414C185.229 168.306 185.571 168.15 185.919 167.946C186.267 167.742 186.609 167.496 186.945 167.208C187.281 166.92 187.593 166.602 187.881 166.254C188.301 165.75 188.679 165.18 189.015 164.544C189.351 163.896 189.633 163.212 189.861 162.492C190.101 161.772 190.281 161.034 190.401 160.278C190.533 159.51 190.599 158.76 190.599 158.028C190.599 157.74 190.593 157.5 190.581 157.308C190.569 157.104 190.551 156.936 190.527 156.804C190.515 156.66 190.503 156.546 190.491 156.462C190.479 156.378 190.467 156.306 190.455 156.246C190.599 156.318 190.755 156.408 190.923 156.516C191.103 156.612 191.265 156.762 191.409 156.966C191.565 157.158 191.691 157.416 191.787 157.74C191.895 158.064 191.949 158.484 191.949 159C191.949 159.84 191.847 160.668 191.643 161.484C191.451 162.288 191.175 163.056 190.815 163.788C190.467 164.52 190.053 165.204 189.573 165.84C189.093 166.476 188.577 167.034 188.025 167.514C187.305 168.15 186.537 168.642 185.721 168.99C184.905 169.338 184.119 169.512 183.363 169.512C182.259 169.512 181.413 169.158 180.825 168.45C180.249 167.754 179.961 166.722 179.961 165.354C179.961 164.622 180.039 163.848 180.195 163.032C180.363 162.216 180.591 161.412 180.879 160.62C181.179 159.828 181.533 159.078 181.941 158.37C182.349 157.65 182.793 157.02 183.273 156.48C183.765 155.928 184.287 155.49 184.839 155.166C185.403 154.842 185.979 154.68 186.567 154.68C186.759 154.68 186.939 154.698 187.107 154.734C187.275 154.758 187.455 154.812 187.647 154.896ZM204.597 158.082C204.597 158.658 204.465 159.204 204.201 159.72C203.949 160.224 203.595 160.68 203.139 161.088C202.683 161.484 202.149 161.82 201.537 162.096C200.925 162.372 200.259 162.558 199.539 162.654C199.719 163.194 199.935 163.752 200.187 164.328C200.451 164.892 200.733 165.438 201.033 165.966C201.333 166.494 201.645 166.98 201.969 167.424C202.293 167.868 202.611 168.234 202.923 168.522C202.863 168.642 202.773 168.762 202.653 168.882C202.545 169.002 202.413 169.11 202.257 169.206C202.113 169.314 201.957 169.398 201.789 169.458C201.633 169.53 201.483 169.566 201.339 169.566C201.075 169.566 200.823 169.44 200.583 169.188C200.343 168.936 200.097 168.54 199.845 168C199.605 167.448 199.347 166.74 199.071 165.876C198.807 165 198.513 163.95 198.189 162.726C198.057 162.726 197.925 162.726 197.793 162.726C197.661 162.726 197.559 162.714 197.487 162.69C197.403 162.642 197.313 162.558 197.217 162.438C196.893 163.134 196.605 163.788 196.353 164.4C196.101 165.012 195.873 165.606 195.669 166.182C195.477 166.746 195.303 167.298 195.147 167.838C195.003 168.366 194.877 168.906 194.769 169.458C194.361 169.362 194.007 169.188 193.707 168.936C193.407 168.684 193.125 168.33 192.861 167.874C192.909 167.766 192.957 167.664 193.005 167.568C193.065 167.46 193.137 167.316 193.221 167.136C193.305 166.944 193.407 166.704 193.527 166.416C193.659 166.128 193.827 165.744 194.031 165.264C194.247 164.784 194.499 164.196 194.787 163.5C195.087 162.804 195.447 161.958 195.867 160.962C196.059 160.518 196.221 160.128 196.353 159.792C196.497 159.456 196.623 159.138 196.731 158.838C196.839 158.526 196.935 158.22 197.019 157.92C197.115 157.608 197.211 157.254 197.307 156.858C196.755 157.05 196.239 157.266 195.759 157.506C195.291 157.734 194.901 157.98 194.589 158.244C194.481 158.172 194.367 158.064 194.247 157.92C194.139 157.776 194.037 157.62 193.941 157.452C193.845 157.272 193.761 157.092 193.689 156.912C193.617 156.732 193.575 156.57 193.563 156.426C193.923 156.186 194.361 155.964 194.877 155.76C195.405 155.556 195.963 155.382 196.551 155.238C197.139 155.082 197.739 154.962 198.351 154.878C198.963 154.794 199.533 154.752 200.061 154.752C201.501 154.752 202.617 155.052 203.409 155.652C204.201 156.24 204.597 157.05 204.597 158.082ZM200.205 156.57C200.121 156.678 199.989 156.894 199.809 157.218C199.629 157.542 199.419 157.932 199.179 158.388C198.951 158.832 198.705 159.318 198.441 159.846C198.189 160.374 197.943 160.896 197.703 161.412C198.603 161.412 199.431 161.328 200.187 161.16C200.943 160.992 201.597 160.758 202.149 160.458C202.701 160.146 203.127 159.786 203.427 159.378C203.739 158.958 203.895 158.496 203.895 157.992C203.895 157.392 203.679 156.936 203.247 156.624C202.815 156.3 202.149 156.138 201.249 156.138C201.045 156.138 200.841 156.15 200.637 156.174C200.433 156.186 200.217 156.204 199.989 156.228L200.205 156.57ZM207.628 157.092C207.148 157.092 206.776 156.96 206.512 156.696C206.26 156.42 206.134 156.09 206.134 155.706C206.134 155.61 206.146 155.496 206.17 155.364C206.206 155.232 206.248 155.118 206.296 155.022C206.452 155.094 206.68 155.148 206.98 155.184C207.292 155.208 207.652 155.22 208.06 155.22C208.672 155.22 209.362 155.196 210.13 155.148C210.91 155.088 211.654 155.028 212.362 154.968C213.07 154.908 213.694 154.854 214.234 154.806C214.774 154.746 215.122 154.716 215.278 154.716C215.722 154.716 216.04 154.884 216.232 155.22C216.436 155.544 216.586 155.982 216.682 156.534C216.37 156.51 216.058 156.492 215.746 156.48C215.446 156.456 215.188 156.444 214.972 156.444C214.588 156.444 214.198 156.456 213.802 156.48C213.418 156.504 213.028 156.54 212.632 156.588C212.464 156.936 212.278 157.35 212.074 157.83C211.87 158.298 211.666 158.79 211.462 159.306C211.27 159.822 211.084 160.338 210.904 160.854C210.724 161.358 210.568 161.814 210.436 162.222C210.172 163.014 209.938 163.746 209.734 164.418C209.542 165.09 209.368 165.72 209.212 166.308C209.068 166.884 208.942 167.436 208.834 167.964C208.726 168.492 208.63 169.008 208.546 169.512C207.742 169.392 207.07 168.888 206.53 168C206.626 167.628 206.74 167.226 206.872 166.794C207.016 166.35 207.178 165.852 207.358 165.3C207.55 164.736 207.772 164.1 208.024 163.392C208.276 162.684 208.564 161.88 208.888 160.98C209.008 160.644 209.134 160.296 209.266 159.936C209.398 159.564 209.524 159.198 209.644 158.838C209.776 158.478 209.89 158.13 209.986 157.794C210.094 157.458 210.184 157.152 210.256 156.876C209.752 156.936 209.272 156.99 208.816 157.038C208.372 157.074 207.976 157.092 207.628 157.092Z" fill="black"/>
<path d="M250 125C250 194.036 194.036 250 125 250C55.9644 250 0 194.036 0 125C0 55.9644 55.9644 0 125 0C194.036 0 250 55.9644 250 125ZM15.1791 125C15.1791 185.652 64.3476 234.821 125 234.821C185.652 234.821 234.821 185.652 234.821 125C234.821 64.3476 185.652 15.1791 125 15.1791C64.3476 15.1791 15.1791 64.3476 15.1791 125Z" fill="black"/>
<path d="M168.574 66.2314L146.574 104.231L125 141.356L135 141.356L151.98 111.731L173 74.7799L168.574 66.2314Z" fill="black"/>
<path d="M79.5737 66.2314L57.5736 104.231L35.9999 141.102L46.1134 141.039L62.9795 111.731L83.9998 74.7799L79.5737 66.2314Z" fill="black"/>
<path d="M124 141.356L101.419 103.212L79.822 66.3556L74.9281 75.2063L92.233 104.257L113 141.356L124 141.356Z" fill="black"/>
<path d="M212.793 141.994L190.419 104.212L168.822 67.3555L163.928 76.2063L181.233 105.257L202.161 141.994L212.793 141.994Z" fill="black"/>
<path d="M124.574 50.2314L102.574 88.2314L93 104.856L102.574 105.125L107.98 95.7314L129 58.7799L124.574 50.2314Z" fill="black"/>
<path d="M155.5 105.381L146.418 88.2128L124.821 51.356L119.927 60.2067L137.232 89.257L146.419 105.381L155.5 105.381Z" fill="black"/>
<path d="M115 138.356L122 138.573L134.5 138.356L134.5 141.355L122 141.355L115 141.355L115 138.356Z" fill="black"/>
<rect x="99" y="104.356" width="52" height="7" fill="black"/>
<rect x="115" y="133.356" width="20" height="7" fill="black"/>
<path d="M124.5 140.356L151.78 106.606H97.2202L124.5 140.356Z" fill="black"/>
<path d="M115.914 112.129C117.602 112.191 118.961 112.223 119.992 112.223C120.383 112.223 121.012 112.207 121.879 112.176C122.746 112.145 123.414 112.129 123.883 112.129C125.617 112.129 126.98 112.566 127.973 113.441C128.973 114.316 129.473 115.453 129.473 116.852C129.473 117.977 129.141 118.984 128.477 119.875C127.812 120.758 126.906 121.391 125.758 121.773C126.281 122.711 127 123.773 127.914 124.961C128.797 126.141 129.637 127.066 130.434 127.738C131.238 128.41 132.102 128.789 133.023 128.875C133.055 129 133.07 129.098 133.07 129.168C133.07 129.246 133.055 129.332 133.023 129.426C132.555 129.402 132.055 129.387 131.523 129.379C130.992 129.371 130.398 129.367 129.742 129.367C129.094 129.367 128.594 129.363 128.242 129.356C126.141 126.91 124.453 124.504 123.18 122.137C122.609 122.137 121.953 122.047 121.211 121.867C121.211 123.383 121.254 125.344 121.34 127.75C121.348 127.953 121.438 128.129 121.609 128.277C121.781 128.418 122.027 128.527 122.348 128.606C122.676 128.684 122.949 128.742 123.168 128.781C123.395 128.813 123.688 128.844 124.047 128.875C124.078 129.031 124.094 129.137 124.094 129.191C124.094 129.254 124.078 129.332 124.047 129.426C122.719 129.379 121.359 129.356 119.969 129.356C118.562 129.356 117.203 129.379 115.891 129.426C115.859 129.332 115.844 129.254 115.844 129.191C115.844 129.059 115.859 128.953 115.891 128.875C116.125 128.852 116.312 128.832 116.453 128.816C116.594 128.801 116.785 128.773 117.027 128.734C117.277 128.695 117.477 128.652 117.625 128.606C117.781 128.551 117.941 128.484 118.105 128.406C118.27 128.328 118.391 128.234 118.469 128.125C118.555 128.016 118.598 127.891 118.598 127.75C118.691 125.305 118.738 122.84 118.738 120.356C118.738 117.824 118.699 115.641 118.621 113.805C118.613 113.602 118.523 113.43 118.352 113.289C118.18 113.141 117.93 113.027 117.602 112.949C117.281 112.871 117.008 112.816 116.781 112.785C116.562 112.746 116.273 112.711 115.914 112.68C115.883 112.539 115.867 112.441 115.867 112.387C115.867 112.34 115.883 112.254 115.914 112.129ZM121.363 112.938H121.34C121.254 115.82 121.211 118.5 121.211 120.977C121.758 121.156 122.312 121.246 122.875 121.246C123.391 121.246 123.852 121.16 124.258 120.988C124.672 120.809 125.012 120.574 125.277 120.285C125.543 119.996 125.762 119.656 125.934 119.266C126.113 118.875 126.238 118.481 126.309 118.082C126.387 117.684 126.426 117.273 126.426 116.852C126.426 115.688 126.105 114.738 125.465 114.004C124.832 113.262 123.93 112.891 122.758 112.891C122.18 112.891 121.715 112.906 121.363 112.938Z" fill="white"/>
</svg>
